<svg width="19.398773" height="19.398804" viewBox="0 0 19.3988 19.3988" fill="none" xmlns="http://www.w3.org/2000/svg" xmlns:xlink="http://www.w3.org/1999/xlink">
	<desc>
			Created with Pixso.
	</desc>
	<defs/>
	<rect id="vuesax/linear/eye" width="19.398773" height="19.398773" fill="#FFFFFF" fill-opacity="0"/>
	<path id="Vector" d="M9.69938 12.5925C8.09898 12.5925 6.80573 11.2992 6.80573 9.69885C6.80573 8.09845 8.09898 6.80518 9.69938 6.80518C11.2998 6.80518 12.593 8.09845 12.593 9.69885C12.593 11.2992 11.2998 12.5925 9.69938 12.5925Z" stroke="#292D32" stroke-opacity="1.000000" stroke-width="1.212423" stroke-linejoin="round"/>
	<path id="Vector" d="M17.0628 11.7924C17.7903 10.6527 17.7903 8.73706 17.0628 7.59741C15.2119 4.68756 12.5526 3.00635 9.69939 3.00635C6.84615 3.00635 4.1869 4.68756 2.33594 7.59741C1.60848 8.73706 1.60848 10.6527 2.33594 11.7924C4.1869 14.7022 6.84615 16.3834 9.69939 16.3834C12.5526 16.3834 15.2119 14.7022 17.0628 11.7924Z" stroke="#292D32" stroke-opacity="1.000000" stroke-width="1.212423" stroke-linejoin="round"/>
	<g opacity="0.000000"/>
</svg>
