<svg width="164.000000" height="180.000000" viewBox="0 0 164 180" fill="none" xmlns="http://www.w3.org/2000/svg" xmlns:xlink="http://www.w3.org/1999/xlink">
	<desc>
			Created with Pixso.
	</desc>
	<defs/>
	<path id="Courier requested" d="M8.47656 9.8418Q8.29199 11.4209 7.31104 12.2788Q6.33008 13.1367 4.70312 13.1367Q2.93945 13.1367 1.87646 11.8721Q0.813477 10.6074 0.813477 8.48828L0.813477 7.53125Q0.813477 6.14355 1.30908 5.09082Q1.80469 4.03809 2.71387 3.47412Q3.62305 2.91016 4.81934 2.91016Q6.40527 2.91016 7.3623 3.79541Q8.31934 4.68066 8.47656 6.24609L7.15723 6.24609Q6.98633 5.05664 6.41553 4.52344Q5.84473 3.99023 4.81934 3.99023Q3.56152 3.99023 2.84717 4.91992Q2.13281 5.84961 2.13281 7.56543L2.13281 8.5293Q2.13281 10.1494 2.80957 11.1064Q3.48633 12.0635 4.70312 12.0635Q5.79688 12.0635 6.38135 11.5679Q6.96582 11.0723 7.15723 9.8418L8.47656 9.8418ZM9.73438 9.2334Q9.73438 8.14648 10.1616 7.27832Q10.5889 6.41016 11.3511 5.93848Q12.1133 5.4668 13.0908 5.4668Q14.6016 5.4668 15.5347 6.5127Q16.4678 7.55859 16.4678 9.29492L16.4678 9.38379Q16.4678 10.4639 16.0542 11.3218Q15.6406 12.1797 14.8716 12.6582Q14.1025 13.1367 13.1045 13.1367Q11.6006 13.1367 10.6675 12.0908Q9.73438 11.0449 9.73438 9.32227L9.73438 9.2334ZM11.0059 9.38379Q11.0059 10.6143 11.5767 11.3594Q12.1475 12.1045 13.1045 12.1045Q14.0684 12.1045 14.6357 11.3491Q15.2031 10.5938 15.2031 9.2334Q15.2031 8.0166 14.6255 7.26123Q14.0479 6.50586 13.0908 6.50586Q12.1543 6.50586 11.5801 7.25098Q11.0059 7.99609 11.0059 9.38379ZM22.6201 12.2686Q21.8818 13.1367 20.4531 13.1367Q19.2705 13.1367 18.6519 12.4497Q18.0332 11.7627 18.0264 10.416L18.0264 5.60352L19.291 5.60352L19.291 10.3818Q19.291 12.0635 20.6582 12.0635Q22.1074 12.0635 22.5859 10.9834L22.5859 5.60352L23.8506 5.60352L23.8506 13L22.6475 13L22.6201 12.2686ZM29.3467 6.73828Q29.0596 6.69043 28.7246 6.69043Q27.4805 6.69043 27.0361 7.75L27.0361 13L25.7715 13L25.7715 5.60352L27.002 5.60352L27.0225 6.45801Q27.6445 5.4668 28.7861 5.4668Q29.1553 5.4668 29.3467 5.5625L29.3467 6.73828ZM31.8828 13L30.6182 13L30.6182 5.60352L31.8828 5.60352L31.8828 13ZM30.5156 3.6416Q30.5156 3.33398 30.7036 3.12207Q30.8916 2.91016 31.2607 2.91016Q31.6299 2.91016 31.8213 3.12207Q32.0127 3.33398 32.0127 3.6416Q32.0127 3.94922 31.8213 4.1543Q31.6299 4.35938 31.2607 4.35938Q30.8916 4.35938 30.7036 4.1543Q30.5156 3.94922 30.5156 3.6416ZM36.9756 13.1367Q35.4717 13.1367 34.5283 12.1489Q33.585 11.1611 33.585 9.50684L33.585 9.27441Q33.585 8.17383 34.0054 7.30908Q34.4258 6.44434 35.1812 5.95557Q35.9365 5.4668 36.8184 5.4668Q38.2607 5.4668 39.0605 6.41699Q39.8604 7.36719 39.8604 9.1377L39.8604 9.66406L34.8496 9.66406Q34.877 10.7578 35.4888 11.4312Q36.1006 12.1045 37.0439 12.1045Q37.7139 12.1045 38.1787 11.8311Q38.6436 11.5576 38.9922 11.1064L39.7646 11.708Q38.835 13.1367 36.9756 13.1367ZM36.8184 6.50586Q36.0527 6.50586 35.5332 7.06299Q35.0137 7.62012 34.8906 8.625L38.5957 8.625L38.5957 8.5293Q38.541 7.56543 38.0762 7.03564Q37.6113 6.50586 36.8184 6.50586ZM44.8984 6.73828Q44.6113 6.69043 44.2764 6.69043Q43.0322 6.69043 42.5879 7.75L42.5879 13L41.3232 13L41.3232 5.60352L42.5537 5.60352L42.5742 6.45801Q43.1963 5.4668 44.3379 5.4668Q44.707 5.4668 44.8984 5.5625L44.8984 6.73828ZM53.1016 6.73828Q52.8145 6.69043 52.4795 6.69043Q51.2354 6.69043 50.791 7.75L50.791 13L49.5264 13L49.5264 5.60352L50.7568 5.60352L50.7773 6.45801Q51.3994 5.4668 52.541 5.4668Q52.9102 5.4668 53.1016 5.5625L53.1016 6.73828ZM57.2031 13.1367Q55.6992 13.1367 54.7559 12.1489Q53.8125 11.1611 53.8125 9.50684L53.8125 9.27441Q53.8125 8.17383 54.2329 7.30908Q54.6533 6.44434 55.4087 5.95557Q56.1641 5.4668 57.0459 5.4668Q58.4883 5.4668 59.2881 6.41699Q60.0879 7.36719 60.0879 9.1377L60.0879 9.66406L55.0771 9.66406Q55.1045 10.7578 55.7163 11.4312Q56.3281 12.1045 57.2715 12.1045Q57.9414 12.1045 58.4062 11.8311Q58.8711 11.5576 59.2197 11.1064L59.9922 11.708Q59.0625 13.1367 57.2031 13.1367ZM57.0459 6.50586Q56.2803 6.50586 55.7607 7.06299Q55.2412 7.62012 55.1182 8.625L58.8232 8.625L58.8232 8.5293Q58.7686 7.56543 58.3037 7.03564Q57.8389 6.50586 57.0459 6.50586ZM61.2432 9.24023Q61.2432 7.49707 62.043 6.48193Q62.8428 5.4668 64.1895 5.4668Q65.502 5.4668 66.2607 6.34863L66.3154 5.60352L67.4775 5.60352L67.4775 15.8438L66.2129 15.8438L66.2129 12.3164Q65.4473 13.1367 64.1758 13.1367Q62.8359 13.1367 62.0396 12.0942Q61.2432 11.0518 61.2432 9.3291L61.2432 9.24023ZM62.5078 9.38379Q62.5078 10.6553 63.0444 11.3799Q63.5811 12.1045 64.4902 12.1045Q65.6182 12.1045 66.2129 11.1064L66.2129 7.4834Q65.6113 6.50586 64.5039 6.50586Q63.5879 6.50586 63.0479 7.23389Q62.5078 7.96191 62.5078 9.38379ZM74.0742 12.2686Q73.3359 13.1367 71.9072 13.1367Q70.7246 13.1367 70.106 12.4497Q69.4873 11.7627 69.4805 10.416L69.4805 5.60352L70.7451 5.60352L70.7451 10.3818Q70.7451 12.0635 72.1123 12.0635Q73.5615 12.0635 74.04 10.9834L74.04 5.60352L75.3047 5.60352L75.3047 13L74.1016 13L74.0742 12.2686ZM80.2949 13.1367Q78.791 13.1367 77.8477 12.1489Q76.9043 11.1611 76.9043 9.50684L76.9043 9.27441Q76.9043 8.17383 77.3247 7.30908Q77.7451 6.44434 78.5005 5.95557Q79.2559 5.4668 80.1377 5.4668Q81.5801 5.4668 82.3799 6.41699Q83.1797 7.36719 83.1797 9.1377L83.1797 9.66406L78.1689 9.66406Q78.1963 10.7578 78.8081 11.4312Q79.4199 12.1045 80.3633 12.1045Q81.0332 12.1045 81.498 11.8311Q81.9629 11.5576 82.3115 11.1064L83.084 11.708Q82.1543 13.1367 80.2949 13.1367ZM80.1377 6.50586Q79.3721 6.50586 78.8525 7.06299Q78.333 7.62012 78.21 8.625L81.915 8.625L81.915 8.5293Q81.8604 7.56543 81.3955 7.03564Q80.9307 6.50586 80.1377 6.50586ZM88.9492 11.0381Q88.9492 10.5254 88.563 10.2417Q88.1768 9.95801 87.2163 9.75293Q86.2559 9.54785 85.6919 9.26074Q85.1279 8.97363 84.8579 8.57715Q84.5879 8.18066 84.5879 7.63379Q84.5879 6.72461 85.3569 6.0957Q86.126 5.4668 87.3223 5.4668Q88.5801 5.4668 89.3628 6.11621Q90.1455 6.76562 90.1455 7.77734L88.874 7.77734Q88.874 7.25781 88.4331 6.88184Q87.9922 6.50586 87.3223 6.50586Q86.6318 6.50586 86.2422 6.80664Q85.8525 7.10742 85.8525 7.59277Q85.8525 8.05078 86.2148 8.2832Q86.5771 8.51562 87.5239 8.72754Q88.4707 8.93945 89.0586 9.2334Q89.6465 9.52734 89.9302 9.94092Q90.2139 10.3545 90.2139 10.9492Q90.2139 11.9404 89.4209 12.5386Q88.6279 13.1367 87.3633 13.1367Q86.4746 13.1367 85.791 12.8223Q85.1074 12.5078 84.7212 11.9438Q84.335 11.3799 84.335 10.7236L85.5996 10.7236Q85.6338 11.3594 86.1089 11.7319Q86.584 12.1045 87.3633 12.1045Q88.0811 12.1045 88.5151 11.814Q88.9492 11.5234 88.9492 11.0381ZM93.5771 3.8125L93.5771 5.60352L94.958 5.60352L94.958 6.58105L93.5771 6.58105L93.5771 11.168Q93.5771 11.6123 93.7617 11.8345Q93.9463 12.0566 94.3906 12.0566Q94.6094 12.0566 94.9922 11.9746L94.9922 13Q94.4932 13.1367 94.0215 13.1367Q93.1738 13.1367 92.7432 12.624Q92.3125 12.1113 92.3125 11.168L92.3125 6.58105L90.9658 6.58105L90.9658 5.60352L92.3125 5.60352L92.3125 3.8125L93.5771 3.8125ZM99.5039 13.1367Q98 13.1367 97.0566 12.1489Q96.1133 11.1611 96.1133 9.50684L96.1133 9.27441Q96.1133 8.17383 96.5337 7.30908Q96.9541 6.44434 97.7095 5.95557Q98.4648 5.4668 99.3467 5.4668Q100.789 5.4668 101.589 6.41699Q102.389 7.36719 102.389 9.1377L102.389 9.66406L97.3779 9.66406Q97.4053 10.7578 98.0171 11.4312Q98.6289 12.1045 99.5723 12.1045Q100.242 12.1045 100.707 11.8311Q101.172 11.5576 101.521 11.1064L102.293 11.708Q101.363 13.1367 99.5039 13.1367ZM99.3467 6.50586Q98.5811 6.50586 98.0615 7.06299Q97.542 7.62012 97.4189 8.625L101.124 8.625L101.124 8.5293Q101.069 7.56543 100.604 7.03564Q100.14 6.50586 99.3467 6.50586ZM103.544 9.24023Q103.544 7.53809 104.351 6.50244Q105.157 5.4668 106.463 5.4668Q107.762 5.4668 108.521 6.35547L108.521 2.5L109.785 2.5L109.785 13L108.623 13L108.562 12.207Q107.803 13.1367 106.449 13.1367Q105.164 13.1367 104.354 12.084Q103.544 11.0312 103.544 9.33594L103.544 9.24023ZM104.809 9.38379Q104.809 10.6416 105.328 11.3525Q105.848 12.0635 106.764 12.0635Q107.967 12.0635 108.521 10.9834L108.521 7.58594Q107.953 6.54004 106.777 6.54004Q105.848 6.54004 105.328 7.25781Q104.809 7.97559 104.809 9.38379Z" fill="#0560FA" fill-opacity="1.000000" fill-rule="evenodd"/>
	<path id="July 7 2022" d="M4.56445 23.4688L5.69531 23.4688L5.69531 29.5098Q5.69531 30.7344 4.95996 31.4258Q4.22461 32.1172 3 32.1172Q1.72852 32.1172 1.01953 31.4668Q0.310547 30.8164 0.310547 29.6445L1.43555 29.6445Q1.43555 30.377 1.83691 30.7871Q2.23828 31.1973 3 31.1973Q3.69727 31.1973 4.12793 30.7578Q4.55859 30.3184 4.56445 29.5273L4.56445 23.4688ZM11.3555 31.373Q10.7227 32.1172 9.49805 32.1172Q8.48438 32.1172 7.9541 31.5283Q7.42383 30.9395 7.41797 29.7852L7.41797 25.6602L8.50195 25.6602L8.50195 29.7559Q8.50195 31.1973 9.67383 31.1973Q10.916 31.1973 11.3262 30.2715L11.3262 25.6602L12.4102 25.6602L12.4102 32L11.3789 32L11.3555 31.373ZM15.2344 32L14.1504 32L14.1504 23L15.2344 23L15.2344 32ZM19.043 30.4121L20.5195 25.6602L21.6797 25.6602L19.1309 32.9785Q18.5391 34.5605 17.25 34.5605L17.0449 34.543L16.6406 34.4668L16.6406 33.5879L16.9336 33.6113Q17.4844 33.6113 17.792 33.3887Q18.0996 33.166 18.2988 32.5742L18.5391 31.9297L16.2773 25.6602L17.4609 25.6602L19.043 30.4121ZM31.0137 24.0781L27.4805 32L26.3438 32L29.8652 24.3594L25.248 24.3594L25.248 23.4688L31.0137 23.4688L31.0137 24.0781ZM40.8047 32L35.2148 32L35.2148 31.2207L38.168 27.9395Q38.8242 27.1953 39.0732 26.7295Q39.3223 26.2637 39.3223 25.7656Q39.3223 25.0977 38.918 24.6699Q38.5137 24.2422 37.8398 24.2422Q37.0312 24.2422 36.583 24.7021Q36.1348 25.1621 36.1348 25.9824L35.0508 25.9824Q35.0508 24.8047 35.8096 24.0781Q36.5684 23.3516 37.8398 23.3516Q39.0293 23.3516 39.7207 23.9756Q40.4121 24.5996 40.4121 25.6367Q40.4121 26.8965 38.8066 28.6367L36.5215 31.1152L40.8047 31.1152L40.8047 32ZM47.3027 28.3613Q47.3027 30.2656 46.6523 31.1914Q46.002 32.1172 44.6191 32.1172Q43.2539 32.1172 42.5977 31.2119Q41.9414 30.3066 41.918 28.5078L41.918 27.0605Q41.918 25.1797 42.5684 24.2656Q43.2188 23.3516 44.6074 23.3516Q45.9844 23.3516 46.6348 24.2334Q47.2852 25.1152 47.3027 26.9551L47.3027 28.3613ZM46.2188 26.8789Q46.2188 25.502 45.832 24.8721Q45.4453 24.2422 44.6074 24.2422Q43.7754 24.2422 43.3945 24.8691Q43.0137 25.4961 43.002 26.7969L43.002 28.5312Q43.002 29.9141 43.4033 30.5732Q43.8047 31.2324 44.6191 31.2324Q45.4219 31.2324 45.8115 30.6113Q46.2012 29.9902 46.2188 28.6543L46.2188 26.8789ZM54.2812 32L48.6914 32L48.6914 31.2207L51.6445 27.9395Q52.3008 27.1953 52.5498 26.7295Q52.7988 26.2637 52.7988 25.7656Q52.7988 25.0977 52.3945 24.6699Q51.9902 24.2422 51.3164 24.2422Q50.5078 24.2422 50.0596 24.7021Q49.6113 25.1621 49.6113 25.9824L48.5273 25.9824Q48.5273 24.8047 49.2861 24.0781Q50.0449 23.3516 51.3164 23.3516Q52.5059 23.3516 53.1973 23.9756Q53.8887 24.5996 53.8887 25.6367Q53.8887 26.8965 52.2832 28.6367L49.998 31.1152L54.2812 31.1152L54.2812 32ZM61.0195 32L55.4297 32L55.4297 31.2207L58.3828 27.9395Q59.0391 27.1953 59.2881 26.7295Q59.5371 26.2637 59.5371 25.7656Q59.5371 25.0977 59.1328 24.6699Q58.7285 24.2422 58.0547 24.2422Q57.2461 24.2422 56.7979 24.7021Q56.3496 25.1621 56.3496 25.9824L55.2656 25.9824Q55.2656 24.8047 56.0244 24.0781Q56.7832 23.3516 58.0547 23.3516Q59.2441 23.3516 59.9355 23.9756Q60.627 24.5996 60.627 25.6367Q60.627 26.8965 59.0215 28.6367L56.7363 31.1152L61.0195 31.1152L61.0195 32Z" fill="#EC8000" fill-opacity="1.000000" fill-rule="evenodd"/>
	<path id="08:00am" d="M75.0586 28.3613Q75.0586 30.2656 74.4082 31.1914Q73.7578 32.1172 72.375 32.1172Q71.0098 32.1172 70.3535 31.2119Q69.6973 30.3066 69.6738 28.5078L69.6738 27.0605Q69.6738 25.1797 70.3242 24.2656Q70.9746 23.3516 72.3633 23.3516Q73.7402 23.3516 74.3906 24.2334Q75.041 25.1152 75.0586 26.9551L75.0586 28.3613ZM73.9746 26.8789Q73.9746 25.502 73.5879 24.8721Q73.2012 24.2422 72.3633 24.2422Q71.5312 24.2422 71.1504 24.8691Q70.7695 25.4961 70.7578 26.7969L70.7578 28.5312Q70.7578 29.9141 71.1592 30.5732Q71.5605 31.2324 72.375 31.2324Q73.1777 31.2324 73.5674 30.6113Q73.957 29.9902 73.9746 28.6543L73.9746 26.8789ZM81.6211 25.6953Q81.6211 26.334 81.2842 26.832Q80.9473 27.3301 80.373 27.6113Q81.041 27.8984 81.4307 28.4492Q81.8203 29 81.8203 29.6973Q81.8203 30.8047 81.0732 31.4609Q80.3262 32.1172 79.1074 32.1172Q77.877 32.1172 77.1357 31.458Q76.3945 30.7988 76.3945 29.6973Q76.3945 29.0059 76.7725 28.4492Q77.1504 27.8926 77.8184 27.6055Q77.25 27.3242 76.9219 26.8262Q76.5938 26.3281 76.5938 25.6953Q76.5938 24.6172 77.2852 23.9844Q77.9766 23.3516 79.1074 23.3516Q80.2324 23.3516 80.9268 23.9844Q81.6211 24.6172 81.6211 25.6953ZM80.7363 29.6738Q80.7363 28.959 80.2822 28.5078Q79.8281 28.0566 79.0957 28.0566Q78.3633 28.0566 77.9209 28.502Q77.4785 28.9473 77.4785 29.6738Q77.4785 30.4004 77.9092 30.8164Q78.3398 31.2324 79.1074 31.2324Q79.8691 31.2324 80.3027 30.8135Q80.7363 30.3945 80.7363 29.6738ZM79.1074 24.2422Q78.4688 24.2422 78.0732 24.6377Q77.6777 25.0332 77.6777 25.7129Q77.6777 26.3633 78.0674 26.7646Q78.457 27.166 79.1074 27.166Q79.7578 27.166 80.1475 26.7646Q80.5371 26.3633 80.5371 25.7129Q80.5371 25.0625 80.1328 24.6523Q79.7285 24.2422 79.1074 24.2422ZM83.2617 31.4316Q83.2617 31.1504 83.4287 30.9629Q83.5957 30.7754 83.9297 30.7754Q84.2637 30.7754 84.4365 30.9629Q84.6094 31.1504 84.6094 31.4316Q84.6094 31.7012 84.4365 31.8828Q84.2637 32.0645 83.9297 32.0645Q83.5957 32.0645 83.4287 31.8828Q83.2617 31.7012 83.2617 31.4316ZM83.2676 26.2578Q83.2676 25.9766 83.4346 25.7891Q83.6016 25.6016 83.9355 25.6016Q84.2695 25.6016 84.4424 25.7891Q84.6152 25.9766 84.6152 26.2578Q84.6152 26.5273 84.4424 26.709Q84.2695 26.8906 83.9355 26.8906Q83.6016 26.8906 83.4346 26.709Q83.2676 26.5273 83.2676 26.2578ZM91.4414 28.3613Q91.4414 30.2656 90.791 31.1914Q90.1406 32.1172 88.7578 32.1172Q87.3926 32.1172 86.7363 31.2119Q86.0801 30.3066 86.0566 28.5078L86.0566 27.0605Q86.0566 25.1797 86.707 24.2656Q87.3574 23.3516 88.7461 23.3516Q90.123 23.3516 90.7734 24.2334Q91.4238 25.1152 91.4414 26.9551L91.4414 28.3613ZM90.3574 26.8789Q90.3574 25.502 89.9707 24.8721Q89.584 24.2422 88.7461 24.2422Q87.9141 24.2422 87.5332 24.8691Q87.1523 25.4961 87.1406 26.7969L87.1406 28.5312Q87.1406 29.9141 87.542 30.5732Q87.9434 31.2324 88.7578 31.2324Q89.5605 31.2324 89.9502 30.6113Q90.3398 29.9902 90.3574 28.6543L90.3574 26.8789ZM98.1797 28.3613Q98.1797 30.2656 97.5293 31.1914Q96.8789 32.1172 95.4961 32.1172Q94.1309 32.1172 93.4746 31.2119Q92.8184 30.3066 92.7949 28.5078L92.7949 27.0605Q92.7949 25.1797 93.4453 24.2656Q94.0957 23.3516 95.4844 23.3516Q96.8613 23.3516 97.5117 24.2334Q98.1621 25.1152 98.1797 26.9551L98.1797 28.3613ZM97.0957 26.8789Q97.0957 25.502 96.709 24.8721Q96.3223 24.2422 95.4844 24.2422Q94.6523 24.2422 94.2715 24.8691Q93.8906 25.4961 93.8789 26.7969L93.8789 28.5312Q93.8789 29.9141 94.2803 30.5732Q94.6816 31.2324 95.4961 31.2324Q96.2988 31.2324 96.6885 30.6113Q97.0781 29.9902 97.0957 28.6543L97.0957 26.8789ZM103.594 32Q103.5 31.8125 103.441 31.332Q102.686 32.1172 101.637 32.1172Q100.699 32.1172 100.099 31.5869Q99.498 31.0566 99.498 30.2422Q99.498 29.252 100.251 28.7041Q101.004 28.1562 102.369 28.1562L103.424 28.1562L103.424 27.6582Q103.424 27.0898 103.084 26.7529Q102.744 26.416 102.082 26.416Q101.502 26.416 101.109 26.709Q100.717 27.002 100.717 27.418L99.627 27.418Q99.627 26.9434 99.9639 26.501Q100.301 26.0586 100.878 25.8008Q101.455 25.543 102.146 25.543Q103.242 25.543 103.863 26.0908Q104.484 26.6387 104.508 27.5996L104.508 30.5176Q104.508 31.3906 104.73 31.9062L104.73 32L103.594 32ZM101.795 31.1738Q102.305 31.1738 102.762 30.9102Q103.219 30.6465 103.424 30.2246L103.424 28.9238L102.574 28.9238Q100.582 28.9238 100.582 30.0898Q100.582 30.5996 100.922 30.8867Q101.262 31.1738 101.795 31.1738ZM107.227 25.6602L107.256 26.3633Q107.953 25.543 109.137 25.543Q110.467 25.543 110.947 26.5625Q111.264 26.1055 111.771 25.8242Q112.277 25.543 112.969 25.543Q115.055 25.543 115.09 27.752L115.09 32L114.006 32L114.006 27.8164Q114.006 27.1367 113.695 26.7998Q113.385 26.4629 112.652 26.4629Q112.049 26.4629 111.65 26.8232Q111.252 27.1836 111.188 27.793L111.188 32L110.098 32L110.098 27.8457Q110.098 26.4629 108.744 26.4629Q107.678 26.4629 107.285 27.3711L107.285 32L106.201 32L106.201 25.6602L107.227 25.6602Z" fill="#EC8000" fill-opacity="1.000000" fill-rule="evenodd"/>
	<path id="Package ready for delivery" d="M2.46777 57.1035L2.46777 61L1.15527 61L1.15527 51.0469L4.82617 51.0469Q6.45996 51.0469 7.38623 51.8809Q8.3125 52.7148 8.3125 54.0889Q8.3125 55.5381 7.40674 56.3208Q6.50098 57.1035 4.8125 57.1035L2.46777 57.1035ZM2.46777 56.0303L4.82617 56.0303Q5.87891 56.0303 6.43945 55.5347Q7 55.0391 7 54.1025Q7 53.2139 6.43945 52.6807Q5.87891 52.1475 4.90137 52.127L2.46777 52.127L2.46777 56.0303ZM14.2803 61Q14.1709 60.7812 14.1025 60.2207Q13.2207 61.1367 11.9971 61.1367Q10.9033 61.1367 10.2026 60.5181Q9.50195 59.8994 9.50195 58.9492Q9.50195 57.7939 10.3804 57.1548Q11.2588 56.5156 12.8516 56.5156L14.082 56.5156L14.082 55.9346Q14.082 55.2715 13.6855 54.8784Q13.2891 54.4854 12.5166 54.4854Q11.8398 54.4854 11.3818 54.8271Q10.9238 55.1689 10.9238 55.6543L9.65234 55.6543Q9.65234 55.1006 10.0454 54.5845Q10.4385 54.0684 11.1118 53.7676Q11.7852 53.4668 12.5918 53.4668Q13.8701 53.4668 14.5947 54.106Q15.3193 54.7451 15.3467 55.8662L15.3467 59.2705Q15.3467 60.2891 15.6064 60.8906L15.6064 61L14.2803 61ZM12.1816 60.0361Q12.7764 60.0361 13.3096 59.7285Q13.8428 59.4209 14.082 58.9287L14.082 57.4111L13.0908 57.4111Q10.7666 57.4111 10.7666 58.7715Q10.7666 59.3662 11.1631 59.7012Q11.5596 60.0361 12.1816 60.0361ZM20.2959 60.1045Q20.9727 60.1045 21.4785 59.6943Q21.9844 59.2842 22.0391 58.6689L23.2354 58.6689Q23.2012 59.3047 22.7979 59.8789Q22.3945 60.4531 21.7212 60.7949Q21.0479 61.1367 20.2959 61.1367Q18.7852 61.1367 17.8931 60.1284Q17.001 59.1201 17.001 57.3701L17.001 57.1582Q17.001 56.0781 17.3975 55.2373Q17.7939 54.3965 18.5356 53.9316Q19.2773 53.4668 20.2891 53.4668Q21.5332 53.4668 22.3569 54.2119Q23.1807 54.957 23.2354 56.1465L22.0391 56.1465Q21.9844 55.4287 21.4956 54.9673Q21.0068 54.5059 20.2891 54.5059Q19.3252 54.5059 18.7954 55.1997Q18.2656 55.8936 18.2656 57.2061L18.2656 57.4453Q18.2656 58.7236 18.792 59.4141Q19.3184 60.1045 20.2959 60.1045ZM26.7217 57.5752L25.9287 58.4023L25.9287 61L24.6641 61L24.6641 50.5L25.9287 50.5L25.9287 56.8506L26.6055 56.0371L28.9092 53.6035L30.4473 53.6035L27.5693 56.6934L30.7822 61L29.2988 61L26.7217 57.5752ZM36.3193 61Q36.21 60.7812 36.1416 60.2207Q35.2598 61.1367 34.0361 61.1367Q32.9424 61.1367 32.2417 60.5181Q31.541 59.8994 31.541 58.9492Q31.541 57.7939 32.4194 57.1548Q33.2979 56.5156 34.8906 56.5156L36.1211 56.5156L36.1211 55.9346Q36.1211 55.2715 35.7246 54.8784Q35.3281 54.4854 34.5557 54.4854Q33.8789 54.4854 33.4209 54.8271Q32.9629 55.1689 32.9629 55.6543L31.6914 55.6543Q31.6914 55.1006 32.0845 54.5845Q32.4775 54.0684 33.1509 53.7676Q33.8242 53.4668 34.6309 53.4668Q35.9092 53.4668 36.6338 54.106Q37.3584 54.7451 37.3857 55.8662L37.3857 59.2705Q37.3857 60.2891 37.6455 60.8906L37.6455 61L36.3193 61ZM34.2207 60.0361Q34.8154 60.0361 35.3486 59.7285Q35.8818 59.4209 36.1211 58.9287L36.1211 57.4111L35.1299 57.4111Q32.8057 57.4111 32.8057 58.7715Q32.8057 59.3662 33.2021 59.7012Q33.5986 60.0361 34.2207 60.0361ZM39.0674 57.2402Q39.0674 55.5107 39.8672 54.4888Q40.667 53.4668 41.9863 53.4668Q43.3398 53.4668 44.0986 54.4238L44.1602 53.6035L45.3154 53.6035L45.3154 60.8223Q45.3154 62.2578 44.4644 63.085Q43.6133 63.9121 42.1777 63.9121Q41.3779 63.9121 40.6123 63.5703Q39.8467 63.2285 39.4434 62.6338L40.0996 61.875Q40.9131 62.8799 42.0889 62.8799Q43.0117 62.8799 43.5278 62.3604Q44.0439 61.8408 44.0439 60.8975L44.0439 60.2617Q43.2852 61.1367 41.9727 61.1367Q40.6738 61.1367 39.8706 60.0908Q39.0674 59.0449 39.0674 57.2402ZM40.3389 57.3838Q40.3389 58.6348 40.8516 59.3491Q41.3643 60.0635 42.2871 60.0635Q43.4834 60.0635 44.0439 58.9766L44.0439 55.5996Q43.4629 54.54 42.3008 54.54Q41.3779 54.54 40.8584 55.2578Q40.3389 55.9756 40.3389 57.3838ZM50.292 61.1367Q48.7881 61.1367 47.8447 60.1489Q46.9014 59.1611 46.9014 57.5068L46.9014 57.2744Q46.9014 56.1738 47.3218 55.3091Q47.7422 54.4443 48.4976 53.9556Q49.2529 53.4668 50.1348 53.4668Q51.5771 53.4668 52.377 54.417Q53.1768 55.3672 53.1768 57.1377L53.1768 57.6641L48.166 57.6641Q48.1934 58.7578 48.8052 59.4312Q49.417 60.1045 50.3604 60.1045Q51.0303 60.1045 51.4951 59.8311Q51.96 59.5576 52.3086 59.1064L53.0811 59.708Q52.1514 61.1367 50.292 61.1367ZM50.1348 54.5059Q49.3691 54.5059 48.8496 55.063Q48.3301 55.6201 48.207 56.625L51.9121 56.625L51.9121 56.5293Q51.8574 55.5654 51.3926 55.0356Q50.9277 54.5059 50.1348 54.5059ZM61.6807 54.7383Q61.3936 54.6904 61.0586 54.6904Q59.8145 54.6904 59.3701 55.75L59.3701 61L58.1055 61L58.1055 53.6035L59.3359 53.6035L59.3564 54.458Q59.9785 53.4668 61.1201 53.4668Q61.4893 53.4668 61.6807 53.5625L61.6807 54.7383ZM65.7822 61.1367Q64.2783 61.1367 63.335 60.1489Q62.3916 59.1611 62.3916 57.5068L62.3916 57.2744Q62.3916 56.1738 62.812 55.3091Q63.2324 54.4443 63.9878 53.9556Q64.7432 53.4668 65.625 53.4668Q67.0674 53.4668 67.8672 54.417Q68.667 55.3672 68.667 57.1377L68.667 57.6641L63.6562 57.6641Q63.6836 58.7578 64.2954 59.4312Q64.9072 60.1045 65.8506 60.1045Q66.5205 60.1045 66.9854 59.8311Q67.4502 59.5576 67.7988 59.1064L68.5713 59.708Q67.6416 61.1367 65.7822 61.1367ZM65.625 54.5059Q64.8594 54.5059 64.3398 55.063Q63.8203 55.6201 63.6973 56.625L67.4023 56.625L67.4023 56.5293Q67.3477 55.5654 66.8828 55.0356Q66.418 54.5059 65.625 54.5059ZM74.6963 61Q74.5869 60.7812 74.5186 60.2207Q73.6367 61.1367 72.4131 61.1367Q71.3193 61.1367 70.6187 60.5181Q69.918 59.8994 69.918 58.9492Q69.918 57.7939 70.7964 57.1548Q71.6748 56.5156 73.2676 56.5156L74.498 56.5156L74.498 55.9346Q74.498 55.2715 74.1016 54.8784Q73.7051 54.4854 72.9326 54.4854Q72.2559 54.4854 71.7979 54.8271Q71.3398 55.1689 71.3398 55.6543L70.0684 55.6543Q70.0684 55.1006 70.4614 54.5845Q70.8545 54.0684 71.5278 53.7676Q72.2012 53.4668 73.0078 53.4668Q74.2861 53.4668 75.0107 54.106Q75.7354 54.7451 75.7627 55.8662L75.7627 59.2705Q75.7627 60.2891 76.0225 60.8906L76.0225 61L74.6963 61ZM72.5977 60.0361Q73.1924 60.0361 73.7256 59.7285Q74.2588 59.4209 74.498 58.9287L74.498 57.4111L73.5068 57.4111Q71.1826 57.4111 71.1826 58.7715Q71.1826 59.3662 71.5791 59.7012Q71.9756 60.0361 72.5977 60.0361ZM77.4375 57.2402Q77.4375 55.5381 78.2441 54.5024Q79.0508 53.4668 80.3564 53.4668Q81.6553 53.4668 82.4141 54.3555L82.4141 50.5L83.6787 50.5L83.6787 61L82.5166 61L82.4551 60.207Q81.6963 61.1367 80.3428 61.1367Q79.0576 61.1367 78.2476 60.084Q77.4375 59.0312 77.4375 57.3359L77.4375 57.2402ZM78.7021 57.3838Q78.7021 58.6416 79.2217 59.3525Q79.7412 60.0635 80.6572 60.0635Q81.8604 60.0635 82.4141 58.9834L82.4141 55.5859Q81.8467 54.54 80.6709 54.54Q79.7412 54.54 79.2217 55.2578Q78.7021 55.9756 78.7021 57.3838ZM88.0605 59.1475L89.7832 53.6035L91.1367 53.6035L88.1631 62.1416Q87.4727 63.9873 85.9688 63.9873L85.7295 63.9668L85.2578 63.8779L85.2578 62.8525L85.5996 62.8799Q86.2422 62.8799 86.6011 62.6201Q86.96 62.3604 87.1924 61.6699L87.4727 60.918L84.834 53.6035L86.2148 53.6035L88.0605 59.1475ZM96.3525 61L96.3525 54.5811L95.1836 54.5811L95.1836 53.6035L96.3525 53.6035L96.3525 52.8447Q96.3525 51.6553 96.9883 51.0059Q97.624 50.3564 98.7861 50.3564Q99.2236 50.3564 99.6543 50.4727L99.5859 51.498Q99.2646 51.4365 98.9023 51.4365Q98.2871 51.4365 97.9521 51.7954Q97.6172 52.1543 97.6172 52.8242L97.6172 53.6035L99.1963 53.6035L99.1963 54.5811L97.6172 54.5811L97.6172 61L96.3525 61ZM100.256 57.2334Q100.256 56.1465 100.683 55.2783Q101.11 54.4102 101.873 53.9385Q102.635 53.4668 103.612 53.4668Q105.123 53.4668 106.056 54.5127Q106.989 55.5586 106.989 57.2949L106.989 57.3838Q106.989 58.4639 106.576 59.3218Q106.162 60.1797 105.393 60.6582Q104.624 61.1367 103.626 61.1367Q102.122 61.1367 101.189 60.0908Q100.256 59.0449 100.256 57.3223L100.256 57.2334ZM101.527 57.3838Q101.527 58.6143 102.098 59.3594Q102.669 60.1045 103.626 60.1045Q104.59 60.1045 105.157 59.3491Q105.725 58.5938 105.725 57.2334Q105.725 56.0166 105.147 55.2612Q104.569 54.5059 103.612 54.5059Q102.676 54.5059 102.102 55.251Q101.527 55.9961 101.527 57.3838ZM112.15 54.7383Q111.863 54.6904 111.528 54.6904Q110.284 54.6904 109.84 55.75L109.84 61L108.575 61L108.575 53.6035L109.806 53.6035L109.826 54.458Q110.448 53.4668 111.59 53.4668Q111.959 53.4668 112.15 53.5625L112.15 54.7383ZM116.471 57.2402Q116.471 55.5381 117.277 54.5024Q118.084 53.4668 119.39 53.4668Q120.688 53.4668 121.447 54.3555L121.447 50.5L122.712 50.5L122.712 61L121.55 61L121.488 60.207Q120.729 61.1367 119.376 61.1367Q118.091 61.1367 117.281 60.084Q116.471 59.0312 116.471 57.3359L116.471 57.2402ZM117.735 57.3838Q117.735 58.6416 118.255 59.3525Q118.774 60.0635 119.69 60.0635Q120.894 60.0635 121.447 58.9834L121.447 55.5859Q120.88 54.54 119.704 54.54Q118.774 54.54 118.255 55.2578Q117.735 55.9756 117.735 57.3838ZM127.743 61.1367Q126.239 61.1367 125.296 60.1489Q124.353 59.1611 124.353 57.5068L124.353 57.2744Q124.353 56.1738 124.773 55.3091Q125.193 54.4443 125.949 53.9556Q126.704 53.4668 127.586 53.4668Q129.028 53.4668 129.828 54.417Q130.628 55.3672 130.628 57.1377L130.628 57.6641L125.617 57.6641Q125.645 58.7578 126.256 59.4312Q126.868 60.1045 127.812 60.1045Q128.481 60.1045 128.946 59.8311Q129.411 59.5576 129.76 59.1064L130.532 59.708Q129.603 61.1367 127.743 61.1367ZM127.586 54.5059Q126.82 54.5059 126.301 55.063Q125.781 55.6201 125.658 56.625L129.363 56.625L129.363 56.5293Q129.309 55.5654 128.844 55.0356Q128.379 54.5059 127.586 54.5059ZM133.465 61L132.2 61L132.2 50.5L133.465 50.5L133.465 61ZM136.862 61L135.598 61L135.598 53.6035L136.862 53.6035L136.862 61ZM135.495 51.6416Q135.495 51.334 135.683 51.1221Q135.871 50.9102 136.24 50.9102Q136.609 50.9102 136.801 51.1221Q136.992 51.334 136.992 51.6416Q136.992 51.9492 136.801 52.1543Q136.609 52.3594 136.24 52.3594Q135.871 52.3594 135.683 52.1543Q135.495 51.9492 135.495 51.6416ZM141.326 59.2842L143.158 53.6035L144.45 53.6035L141.798 61L140.834 61L138.154 53.6035L139.446 53.6035L141.326 59.2842ZM148.647 61.1367Q147.144 61.1367 146.2 60.1489Q145.257 59.1611 145.257 57.5068L145.257 57.2744Q145.257 56.1738 145.677 55.3091Q146.098 54.4443 146.853 53.9556Q147.608 53.4668 148.49 53.4668Q149.933 53.4668 150.732 54.417Q151.532 55.3672 151.532 57.1377L151.532 57.6641L146.521 57.6641Q146.549 58.7578 147.161 59.4312Q147.772 60.1045 148.716 60.1045Q149.386 60.1045 149.851 59.8311Q150.315 59.5576 150.664 59.1064L151.437 59.708Q150.507 61.1367 148.647 61.1367ZM148.49 54.5059Q147.725 54.5059 147.205 55.063Q146.686 55.6201 146.562 56.625L150.268 56.625L150.268 56.5293Q150.213 55.5654 149.748 55.0356Q149.283 54.5059 148.49 54.5059ZM156.57 54.7383Q156.283 54.6904 155.948 54.6904Q154.704 54.6904 154.26 55.75L154.26 61L152.995 61L152.995 53.6035L154.226 53.6035L154.246 54.458Q154.868 53.4668 156.01 53.4668Q156.379 53.4668 156.57 53.5625L156.57 54.7383ZM160.275 59.1475L161.998 53.6035L163.352 53.6035L160.378 62.1416Q159.688 63.9873 158.184 63.9873L157.944 63.9668L157.473 63.8779L157.473 62.8525L157.814 62.8799Q158.457 62.8799 158.816 62.6201Q159.175 62.3604 159.407 61.6699L159.688 60.918L157.049 53.6035L158.43 53.6035L160.275 59.1475Z" fill="#0560FA" fill-opacity="1.000000" fill-rule="evenodd"/>
	<path id="July 7 2022" d="M4.56445 71.4688L5.69531 71.4688L5.69531 77.5098Q5.69531 78.7344 4.95996 79.4258Q4.22461 80.1172 3 80.1172Q1.72852 80.1172 1.01953 79.4668Q0.310547 78.8164 0.310547 77.6445L1.43555 77.6445Q1.43555 78.377 1.83691 78.7871Q2.23828 79.1973 3 79.1973Q3.69727 79.1973 4.12793 78.7578Q4.55859 78.3184 4.56445 77.5273L4.56445 71.4688ZM11.3555 79.373Q10.7227 80.1172 9.49805 80.1172Q8.48438 80.1172 7.9541 79.5283Q7.42383 78.9395 7.41797 77.7852L7.41797 73.6602L8.50195 73.6602L8.50195 77.7559Q8.50195 79.1973 9.67383 79.1973Q10.916 79.1973 11.3262 78.2715L11.3262 73.6602L12.4102 73.6602L12.4102 80L11.3789 80L11.3555 79.373ZM15.2344 80L14.1504 80L14.1504 71L15.2344 71L15.2344 80ZM19.043 78.4121L20.5195 73.6602L21.6797 73.6602L19.1309 80.9785Q18.5391 82.5605 17.25 82.5605L17.0449 82.543L16.6406 82.4668L16.6406 81.5879L16.9336 81.6113Q17.4844 81.6113 17.792 81.3887Q18.0996 81.166 18.2988 80.5742L18.5391 79.9297L16.2773 73.6602L17.4609 73.6602L19.043 78.4121ZM31.0137 72.0781L27.4805 80L26.3438 80L29.8652 72.3594L25.248 72.3594L25.248 71.4688L31.0137 71.4688L31.0137 72.0781ZM40.8047 80L35.2148 80L35.2148 79.2207L38.168 75.9395Q38.8242 75.1953 39.0732 74.7295Q39.3223 74.2637 39.3223 73.7656Q39.3223 73.0977 38.918 72.6699Q38.5137 72.2422 37.8398 72.2422Q37.0312 72.2422 36.583 72.7021Q36.1348 73.1621 36.1348 73.9824L35.0508 73.9824Q35.0508 72.8047 35.8096 72.0781Q36.5684 71.3516 37.8398 71.3516Q39.0293 71.3516 39.7207 71.9756Q40.4121 72.5996 40.4121 73.6367Q40.4121 74.8965 38.8066 76.6367L36.5215 79.1152L40.8047 79.1152L40.8047 80ZM47.3027 76.3613Q47.3027 78.2656 46.6523 79.1914Q46.002 80.1172 44.6191 80.1172Q43.2539 80.1172 42.5977 79.2119Q41.9414 78.3066 41.918 76.5078L41.918 75.0605Q41.918 73.1797 42.5684 72.2656Q43.2188 71.3516 44.6074 71.3516Q45.9844 71.3516 46.6348 72.2334Q47.2852 73.1152 47.3027 74.9551L47.3027 76.3613ZM46.2188 74.8789Q46.2188 73.502 45.832 72.8721Q45.4453 72.2422 44.6074 72.2422Q43.7754 72.2422 43.3945 72.8691Q43.0137 73.4961 43.002 74.7969L43.002 76.5312Q43.002 77.9141 43.4033 78.5732Q43.8047 79.2324 44.6191 79.2324Q45.4219 79.2324 45.8115 78.6113Q46.2012 77.9902 46.2188 76.6543L46.2188 74.8789ZM54.2812 80L48.6914 80L48.6914 79.2207L51.6445 75.9395Q52.3008 75.1953 52.5498 74.7295Q52.7988 74.2637 52.7988 73.7656Q52.7988 73.0977 52.3945 72.6699Q51.9902 72.2422 51.3164 72.2422Q50.5078 72.2422 50.0596 72.7021Q49.6113 73.1621 49.6113 73.9824L48.5273 73.9824Q48.5273 72.8047 49.2861 72.0781Q50.0449 71.3516 51.3164 71.3516Q52.5059 71.3516 53.1973 71.9756Q53.8887 72.5996 53.8887 73.6367Q53.8887 74.8965 52.2832 76.6367L49.998 79.1152L54.2812 79.1152L54.2812 80ZM61.0195 80L55.4297 80L55.4297 79.2207L58.3828 75.9395Q59.0391 75.1953 59.2881 74.7295Q59.5371 74.2637 59.5371 73.7656Q59.5371 73.0977 59.1328 72.6699Q58.7285 72.2422 58.0547 72.2422Q57.2461 72.2422 56.7979 72.7021Q56.3496 73.1621 56.3496 73.9824L55.2656 73.9824Q55.2656 72.8047 56.0244 72.0781Q56.7832 71.3516 58.0547 71.3516Q59.2441 71.3516 59.9355 71.9756Q60.627 72.5996 60.627 73.6367Q60.627 74.8965 59.0215 76.6367L56.7363 79.1152L61.0195 79.1152L61.0195 80Z" fill="#EC8000" fill-opacity="1.000000" fill-rule="evenodd"/>
	<path id="08:30am" d="M75.0586 76.3613Q75.0586 78.2656 74.4082 79.1914Q73.7578 80.1172 72.375 80.1172Q71.0098 80.1172 70.3535 79.2119Q69.6973 78.3066 69.6738 76.5078L69.6738 75.0605Q69.6738 73.1797 70.3242 72.2656Q70.9746 71.3516 72.3633 71.3516Q73.7402 71.3516 74.3906 72.2334Q75.041 73.1152 75.0586 74.9551L75.0586 76.3613ZM73.9746 74.8789Q73.9746 73.502 73.5879 72.8721Q73.2012 72.2422 72.3633 72.2422Q71.5312 72.2422 71.1504 72.8691Q70.7695 73.4961 70.7578 74.7969L70.7578 76.5312Q70.7578 77.9141 71.1592 78.5732Q71.5605 79.2324 72.375 79.2324Q73.1777 79.2324 73.5674 78.6113Q73.957 77.9902 73.9746 76.6543L73.9746 74.8789ZM81.6211 73.6953Q81.6211 74.334 81.2842 74.832Q80.9473 75.3301 80.373 75.6113Q81.041 75.8984 81.4307 76.4492Q81.8203 77 81.8203 77.6973Q81.8203 78.8047 81.0732 79.4609Q80.3262 80.1172 79.1074 80.1172Q77.877 80.1172 77.1357 79.458Q76.3945 78.7988 76.3945 77.6973Q76.3945 77.0059 76.7725 76.4492Q77.1504 75.8926 77.8184 75.6055Q77.25 75.3242 76.9219 74.8262Q76.5938 74.3281 76.5938 73.6953Q76.5938 72.6172 77.2852 71.9844Q77.9766 71.3516 79.1074 71.3516Q80.2324 71.3516 80.9268 71.9844Q81.6211 72.6172 81.6211 73.6953ZM80.7363 77.6738Q80.7363 76.959 80.2822 76.5078Q79.8281 76.0566 79.0957 76.0566Q78.3633 76.0566 77.9209 76.502Q77.4785 76.9473 77.4785 77.6738Q77.4785 78.4004 77.9092 78.8164Q78.3398 79.2324 79.1074 79.2324Q79.8691 79.2324 80.3027 78.8135Q80.7363 78.3945 80.7363 77.6738ZM79.1074 72.2422Q78.4688 72.2422 78.0732 72.6377Q77.6777 73.0332 77.6777 73.7129Q77.6777 74.3633 78.0674 74.7646Q78.457 75.166 79.1074 75.166Q79.7578 75.166 80.1475 74.7646Q80.5371 74.3633 80.5371 73.7129Q80.5371 73.0625 80.1328 72.6523Q79.7285 72.2422 79.1074 72.2422ZM83.2617 79.4316Q83.2617 79.1504 83.4287 78.9629Q83.5957 78.7754 83.9297 78.7754Q84.2637 78.7754 84.4365 78.9629Q84.6094 79.1504 84.6094 79.4316Q84.6094 79.7012 84.4365 79.8828Q84.2637 80.0645 83.9297 80.0645Q83.5957 80.0645 83.4287 79.8828Q83.2617 79.7012 83.2617 79.4316ZM83.2676 74.2578Q83.2676 73.9766 83.4346 73.7891Q83.6016 73.6016 83.9355 73.6016Q84.2695 73.6016 84.4424 73.7891Q84.6152 73.9766 84.6152 74.2578Q84.6152 74.5273 84.4424 74.709Q84.2695 74.8906 83.9355 74.8906Q83.6016 74.8906 83.4346 74.709Q83.2676 74.5273 83.2676 74.2578ZM87.668 75.207L88.4824 75.207Q89.25 75.1953 89.6895 74.8027Q90.1289 74.4102 90.1289 73.7422Q90.1289 72.2422 88.6348 72.2422Q87.9316 72.2422 87.5127 72.6436Q87.0938 73.0449 87.0938 73.707L86.0098 73.707Q86.0098 72.6934 86.751 72.0225Q87.4922 71.3516 88.6348 71.3516Q89.8418 71.3516 90.5273 71.9902Q91.2129 72.6289 91.2129 73.7656Q91.2129 74.3223 90.8525 74.8438Q90.4922 75.3652 89.8711 75.623Q90.5742 75.8457 90.958 76.3613Q91.3418 76.877 91.3418 77.6211Q91.3418 78.7695 90.5918 79.4434Q89.8418 80.1172 88.6406 80.1172Q87.4395 80.1172 86.6865 79.4668Q85.9336 78.8164 85.9336 77.75L87.0234 77.75Q87.0234 78.4238 87.4629 78.8281Q87.9023 79.2324 88.6406 79.2324Q89.4258 79.2324 89.8418 78.8223Q90.2578 78.4121 90.2578 77.6445Q90.2578 76.9004 89.8008 76.502Q89.3438 76.1035 88.4824 76.0918L87.668 76.0918L87.668 75.207ZM98.1797 76.3613Q98.1797 78.2656 97.5293 79.1914Q96.8789 80.1172 95.4961 80.1172Q94.1309 80.1172 93.4746 79.2119Q92.8184 78.3066 92.7949 76.5078L92.7949 75.0605Q92.7949 73.1797 93.4453 72.2656Q94.0957 71.3516 95.4844 71.3516Q96.8613 71.3516 97.5117 72.2334Q98.1621 73.1152 98.1797 74.9551L98.1797 76.3613ZM97.0957 74.8789Q97.0957 73.502 96.709 72.8721Q96.3223 72.2422 95.4844 72.2422Q94.6523 72.2422 94.2715 72.8691Q93.8906 73.4961 93.8789 74.7969L93.8789 76.5312Q93.8789 77.9141 94.2803 78.5732Q94.6816 79.2324 95.4961 79.2324Q96.2988 79.2324 96.6885 78.6113Q97.0781 77.9902 97.0957 76.6543L97.0957 74.8789ZM103.594 80Q103.5 79.8125 103.441 79.332Q102.686 80.1172 101.637 80.1172Q100.699 80.1172 100.099 79.5869Q99.498 79.0566 99.498 78.2422Q99.498 77.252 100.251 76.7041Q101.004 76.1562 102.369 76.1562L103.424 76.1562L103.424 75.6582Q103.424 75.0898 103.084 74.7529Q102.744 74.416 102.082 74.416Q101.502 74.416 101.109 74.709Q100.717 75.002 100.717 75.418L99.627 75.418Q99.627 74.9434 99.9639 74.501Q100.301 74.0586 100.878 73.8008Q101.455 73.543 102.146 73.543Q103.242 73.543 103.863 74.0908Q104.484 74.6387 104.508 75.5996L104.508 78.5176Q104.508 79.3906 104.73 79.9062L104.73 80L103.594 80ZM101.795 79.1738Q102.305 79.1738 102.762 78.9102Q103.219 78.6465 103.424 78.2246L103.424 76.9238L102.574 76.9238Q100.582 76.9238 100.582 78.0898Q100.582 78.5996 100.922 78.8867Q101.262 79.1738 101.795 79.1738ZM107.227 73.6602L107.256 74.3633Q107.953 73.543 109.137 73.543Q110.467 73.543 110.947 74.5625Q111.264 74.1055 111.771 73.8242Q112.277 73.543 112.969 73.543Q115.055 73.543 115.09 75.752L115.09 80L114.006 80L114.006 75.8164Q114.006 75.1367 113.695 74.7998Q113.385 74.4629 112.652 74.4629Q112.049 74.4629 111.65 74.8232Q111.252 75.1836 111.188 75.793L111.188 80L110.098 80L110.098 75.8457Q110.098 74.4629 108.744 74.4629Q107.678 74.4629 107.285 75.3711L107.285 80L106.201 80L106.201 73.6602L107.227 73.6602Z" fill="#EC8000" fill-opacity="1.000000" fill-rule="evenodd"/>
	<path id="Package in transit" d="M2.46777 105.104L2.46777 109L1.15527 109L1.15527 99.0469L4.82617 99.0469Q6.45996 99.0469 7.38623 99.8809Q8.3125 100.715 8.3125 102.089Q8.3125 103.538 7.40674 104.321Q6.50098 105.104 4.8125 105.104L2.46777 105.104ZM2.46777 104.03L4.82617 104.03Q5.87891 104.03 6.43945 103.535Q7 103.039 7 102.103Q7 101.214 6.43945 100.681Q5.87891 100.147 4.90137 100.127L2.46777 100.127L2.46777 104.03ZM14.2803 109Q14.1709 108.781 14.1025 108.221Q13.2207 109.137 11.9971 109.137Q10.9033 109.137 10.2026 108.518Q9.50195 107.899 9.50195 106.949Q9.50195 105.794 10.3804 105.155Q11.2588 104.516 12.8516 104.516L14.082 104.516L14.082 103.935Q14.082 103.271 13.6855 102.878Q13.2891 102.485 12.5166 102.485Q11.8398 102.485 11.3818 102.827Q10.9238 103.169 10.9238 103.654L9.65234 103.654Q9.65234 103.101 10.0454 102.584Q10.4385 102.068 11.1118 101.768Q11.7852 101.467 12.5918 101.467Q13.8701 101.467 14.5947 102.106Q15.3193 102.745 15.3467 103.866L15.3467 107.271Q15.3467 108.289 15.6064 108.891L15.6064 109L14.2803 109ZM12.1816 108.036Q12.7764 108.036 13.3096 107.729Q13.8428 107.421 14.082 106.929L14.082 105.411L13.0908 105.411Q10.7666 105.411 10.7666 106.771Q10.7666 107.366 11.1631 107.701Q11.5596 108.036 12.1816 108.036ZM20.2959 108.104Q20.9727 108.104 21.4785 107.694Q21.9844 107.284 22.0391 106.669L23.2354 106.669Q23.2012 107.305 22.7979 107.879Q22.3945 108.453 21.7212 108.795Q21.0479 109.137 20.2959 109.137Q18.7852 109.137 17.8931 108.128Q17.001 107.12 17.001 105.37L17.001 105.158Q17.001 104.078 17.3975 103.237Q17.7939 102.396 18.5356 101.932Q19.2773 101.467 20.2891 101.467Q21.5332 101.467 22.3569 102.212Q23.1807 102.957 23.2354 104.146L22.0391 104.146Q21.9844 103.429 21.4956 102.967Q21.0068 102.506 20.2891 102.506Q19.3252 102.506 18.7954 103.2Q18.2656 103.894 18.2656 105.206L18.2656 105.445Q18.2656 106.724 18.792 107.414Q19.3184 108.104 20.2959 108.104ZM26.7217 105.575L25.9287 106.402L25.9287 109L24.6641 109L24.6641 98.5L25.9287 98.5L25.9287 104.851L26.6055 104.037L28.9092 101.604L30.4473 101.604L27.5693 104.693L30.7822 109L29.2988 109L26.7217 105.575ZM36.3193 109Q36.21 108.781 36.1416 108.221Q35.2598 109.137 34.0361 109.137Q32.9424 109.137 32.2417 108.518Q31.541 107.899 31.541 106.949Q31.541 105.794 32.4194 105.155Q33.2979 104.516 34.8906 104.516L36.1211 104.516L36.1211 103.935Q36.1211 103.271 35.7246 102.878Q35.3281 102.485 34.5557 102.485Q33.8789 102.485 33.4209 102.827Q32.9629 103.169 32.9629 103.654L31.6914 103.654Q31.6914 103.101 32.0845 102.584Q32.4775 102.068 33.1509 101.768Q33.8242 101.467 34.6309 101.467Q35.9092 101.467 36.6338 102.106Q37.3584 102.745 37.3857 103.866L37.3857 107.271Q37.3857 108.289 37.6455 108.891L37.6455 109L36.3193 109ZM34.2207 108.036Q34.8154 108.036 35.3486 107.729Q35.8818 107.421 36.1211 106.929L36.1211 105.411L35.1299 105.411Q32.8057 105.411 32.8057 106.771Q32.8057 107.366 33.2021 107.701Q33.5986 108.036 34.2207 108.036ZM39.0674 105.24Q39.0674 103.511 39.8672 102.489Q40.667 101.467 41.9863 101.467Q43.3398 101.467 44.0986 102.424L44.1602 101.604L45.3154 101.604L45.3154 108.822Q45.3154 110.258 44.4644 111.085Q43.6133 111.912 42.1777 111.912Q41.3779 111.912 40.6123 111.57Q39.8467 111.229 39.4434 110.634L40.0996 109.875Q40.9131 110.88 42.0889 110.88Q43.0117 110.88 43.5278 110.36Q44.0439 109.841 44.0439 108.897L44.0439 108.262Q43.2852 109.137 41.9727 109.137Q40.6738 109.137 39.8706 108.091Q39.0674 107.045 39.0674 105.24ZM40.3389 105.384Q40.3389 106.635 40.8516 107.349Q41.3643 108.063 42.2871 108.063Q43.4834 108.063 44.0439 106.977L44.0439 103.6Q43.4629 102.54 42.3008 102.54Q41.3779 102.54 40.8584 103.258Q40.3389 103.976 40.3389 105.384ZM50.292 109.137Q48.7881 109.137 47.8447 108.149Q46.9014 107.161 46.9014 105.507L46.9014 105.274Q46.9014 104.174 47.3218 103.309Q47.7422 102.444 48.4976 101.956Q49.2529 101.467 50.1348 101.467Q51.5771 101.467 52.377 102.417Q53.1768 103.367 53.1768 105.138L53.1768 105.664L48.166 105.664Q48.1934 106.758 48.8052 107.431Q49.417 108.104 50.3604 108.104Q51.0303 108.104 51.4951 107.831Q51.96 107.558 52.3086 107.106L53.0811 107.708Q52.1514 109.137 50.292 109.137ZM50.1348 102.506Q49.3691 102.506 48.8496 103.063Q48.3301 103.62 48.207 104.625L51.9121 104.625L51.9121 104.529Q51.8574 103.565 51.3926 103.036Q50.9277 102.506 50.1348 102.506ZM59.4795 109L58.2148 109L58.2148 101.604L59.4795 101.604L59.4795 109ZM58.1123 99.6416Q58.1123 99.334 58.3003 99.1221Q58.4883 98.9102 58.8574 98.9102Q59.2266 98.9102 59.418 99.1221Q59.6094 99.334 59.6094 99.6416Q59.6094 99.9492 59.418 100.154Q59.2266 100.359 58.8574 100.359Q58.4883 100.359 58.3003 100.154Q58.1123 99.9492 58.1123 99.6416ZM62.6992 101.604L62.7402 102.533Q63.5879 101.467 64.9551 101.467Q67.2998 101.467 67.3203 104.112L67.3203 109L66.0557 109L66.0557 104.105Q66.0488 103.306 65.6899 102.923Q65.3311 102.54 64.5723 102.54Q63.957 102.54 63.4922 102.868Q63.0273 103.196 62.7676 103.729L62.7676 109L61.5029 109L61.5029 101.604L62.6992 101.604ZM74.4092 99.8125L74.4092 101.604L75.79 101.604L75.79 102.581L74.4092 102.581L74.4092 107.168Q74.4092 107.612 74.5938 107.834Q74.7783 108.057 75.2227 108.057Q75.4414 108.057 75.8242 107.975L75.8242 109Q75.3252 109.137 74.8535 109.137Q74.0059 109.137 73.5752 108.624Q73.1445 108.111 73.1445 107.168L73.1445 102.581L71.7979 102.581L71.7979 101.604L73.1445 101.604L73.1445 99.8125L74.4092 99.8125ZM80.8418 102.738Q80.5547 102.69 80.2197 102.69Q78.9756 102.69 78.5312 103.75L78.5312 109L77.2666 109L77.2666 101.604L78.4971 101.604L78.5176 102.458Q79.1396 101.467 80.2812 101.467Q80.6504 101.467 80.8418 101.562L80.8418 102.738ZM86.2969 109Q86.1875 108.781 86.1191 108.221Q85.2373 109.137 84.0137 109.137Q82.9199 109.137 82.2192 108.518Q81.5186 107.899 81.5186 106.949Q81.5186 105.794 82.397 105.155Q83.2754 104.516 84.8682 104.516L86.0986 104.516L86.0986 103.935Q86.0986 103.271 85.7021 102.878Q85.3057 102.485 84.5332 102.485Q83.8564 102.485 83.3984 102.827Q82.9404 103.169 82.9404 103.654L81.6689 103.654Q81.6689 103.101 82.062 102.584Q82.4551 102.068 83.1284 101.768Q83.8018 101.467 84.6084 101.467Q85.8867 101.467 86.6113 102.106Q87.3359 102.745 87.3633 103.866L87.3633 107.271Q87.3633 108.289 87.623 108.891L87.623 109L86.2969 109ZM84.1982 108.036Q84.793 108.036 85.3262 107.729Q85.8594 107.421 86.0986 106.929L86.0986 105.411L85.1074 105.411Q82.7832 105.411 82.7832 106.771Q82.7832 107.366 83.1797 107.701Q83.5762 108.036 84.1982 108.036ZM90.542 101.604L90.583 102.533Q91.4307 101.467 92.7979 101.467Q95.1426 101.467 95.1631 104.112L95.1631 109L93.8984 109L93.8984 104.105Q93.8916 103.306 93.5327 102.923Q93.1738 102.54 92.415 102.54Q91.7998 102.54 91.335 102.868Q90.8701 103.196 90.6104 103.729L90.6104 109L89.3457 109L89.3457 101.604L90.542 101.604ZM101.377 107.038Q101.377 106.525 100.991 106.242Q100.604 105.958 99.644 105.753Q98.6836 105.548 98.1196 105.261Q97.5557 104.974 97.2856 104.577Q97.0156 104.181 97.0156 103.634Q97.0156 102.725 97.7847 102.096Q98.5537 101.467 99.75 101.467Q101.008 101.467 101.791 102.116Q102.573 102.766 102.573 103.777L101.302 103.777Q101.302 103.258 100.861 102.882Q100.42 102.506 99.75 102.506Q99.0596 102.506 98.6699 102.807Q98.2803 103.107 98.2803 103.593Q98.2803 104.051 98.6426 104.283Q99.0049 104.516 99.9517 104.728Q100.898 104.939 101.486 105.233Q102.074 105.527 102.358 105.941Q102.642 106.354 102.642 106.949Q102.642 107.94 101.849 108.539Q101.056 109.137 99.791 109.137Q98.9023 109.137 98.2188 108.822Q97.5352 108.508 97.1489 107.944Q96.7627 107.38 96.7627 106.724L98.0273 106.724Q98.0615 107.359 98.5366 107.732Q99.0117 108.104 99.791 108.104Q100.509 108.104 100.943 107.814Q101.377 107.523 101.377 107.038ZM105.663 109L104.398 109L104.398 101.604L105.663 101.604L105.663 109ZM104.296 99.6416Q104.296 99.334 104.484 99.1221Q104.672 98.9102 105.041 98.9102Q105.41 98.9102 105.602 99.1221Q105.793 99.334 105.793 99.6416Q105.793 99.9492 105.602 100.154Q105.41 100.359 105.041 100.359Q104.672 100.359 104.484 100.154Q104.296 99.9492 104.296 99.6416ZM109.402 99.8125L109.402 101.604L110.783 101.604L110.783 102.581L109.402 102.581L109.402 107.168Q109.402 107.612 109.587 107.834Q109.771 108.057 110.216 108.057Q110.435 108.057 110.817 107.975L110.817 109Q110.318 109.137 109.847 109.137Q108.999 109.137 108.568 108.624Q108.138 108.111 108.138 107.168L108.138 102.581L106.791 102.581L106.791 101.604L108.138 101.604L108.138 99.8125L109.402 99.8125Z" fill="#0560FA" fill-opacity="1.000000" fill-rule="evenodd"/>
	<path id="July 7 2022" d="M4.56445 119.469L5.69531 119.469L5.69531 125.51Q5.69531 126.734 4.95996 127.426Q4.22461 128.117 3 128.117Q1.72852 128.117 1.01953 127.467Q0.310547 126.816 0.310547 125.645L1.43555 125.645Q1.43555 126.377 1.83691 126.787Q2.23828 127.197 3 127.197Q3.69727 127.197 4.12793 126.758Q4.55859 126.318 4.56445 125.527L4.56445 119.469ZM11.3555 127.373Q10.7227 128.117 9.49805 128.117Q8.48438 128.117 7.9541 127.528Q7.42383 126.939 7.41797 125.785L7.41797 121.66L8.50195 121.66L8.50195 125.756Q8.50195 127.197 9.67383 127.197Q10.916 127.197 11.3262 126.271L11.3262 121.66L12.4102 121.66L12.4102 128L11.3789 128L11.3555 127.373ZM15.2344 128L14.1504 128L14.1504 119L15.2344 119L15.2344 128ZM19.043 126.412L20.5195 121.66L21.6797 121.66L19.1309 128.979Q18.5391 130.561 17.25 130.561L17.0449 130.543L16.6406 130.467L16.6406 129.588L16.9336 129.611Q17.4844 129.611 17.792 129.389Q18.0996 129.166 18.2988 128.574L18.5391 127.93L16.2773 121.66L17.4609 121.66L19.043 126.412ZM31.0137 120.078L27.4805 128L26.3438 128L29.8652 120.359L25.248 120.359L25.248 119.469L31.0137 119.469L31.0137 120.078ZM40.8047 128L35.2148 128L35.2148 127.221L38.168 123.939Q38.8242 123.195 39.0732 122.729Q39.3223 122.264 39.3223 121.766Q39.3223 121.098 38.918 120.67Q38.5137 120.242 37.8398 120.242Q37.0312 120.242 36.583 120.702Q36.1348 121.162 36.1348 121.982L35.0508 121.982Q35.0508 120.805 35.8096 120.078Q36.5684 119.352 37.8398 119.352Q39.0293 119.352 39.7207 119.976Q40.4121 120.6 40.4121 121.637Q40.4121 122.896 38.8066 124.637L36.5215 127.115L40.8047 127.115L40.8047 128ZM47.3027 124.361Q47.3027 126.266 46.6523 127.191Q46.002 128.117 44.6191 128.117Q43.2539 128.117 42.5977 127.212Q41.9414 126.307 41.918 124.508L41.918 123.061Q41.918 121.18 42.5684 120.266Q43.2188 119.352 44.6074 119.352Q45.9844 119.352 46.6348 120.233Q47.2852 121.115 47.3027 122.955L47.3027 124.361ZM46.2188 122.879Q46.2188 121.502 45.832 120.872Q45.4453 120.242 44.6074 120.242Q43.7754 120.242 43.3945 120.869Q43.0137 121.496 43.002 122.797L43.002 124.531Q43.002 125.914 43.4033 126.573Q43.8047 127.232 44.6191 127.232Q45.4219 127.232 45.8115 126.611Q46.2012 125.99 46.2188 124.654L46.2188 122.879ZM54.2812 128L48.6914 128L48.6914 127.221L51.6445 123.939Q52.3008 123.195 52.5498 122.729Q52.7988 122.264 52.7988 121.766Q52.7988 121.098 52.3945 120.67Q51.9902 120.242 51.3164 120.242Q50.5078 120.242 50.0596 120.702Q49.6113 121.162 49.6113 121.982L48.5273 121.982Q48.5273 120.805 49.2861 120.078Q50.0449 119.352 51.3164 119.352Q52.5059 119.352 53.1973 119.976Q53.8887 120.6 53.8887 121.637Q53.8887 122.896 52.2832 124.637L49.998 127.115L54.2812 127.115L54.2812 128ZM61.0195 128L55.4297 128L55.4297 127.221L58.3828 123.939Q59.0391 123.195 59.2881 122.729Q59.5371 122.264 59.5371 121.766Q59.5371 121.098 59.1328 120.67Q58.7285 120.242 58.0547 120.242Q57.2461 120.242 56.7979 120.702Q56.3496 121.162 56.3496 121.982L55.2656 121.982Q55.2656 120.805 56.0244 120.078Q56.7832 119.352 58.0547 119.352Q59.2441 119.352 59.9355 119.976Q60.627 120.6 60.627 121.637Q60.627 122.896 59.0215 124.637L56.7363 127.115L61.0195 127.115L61.0195 128Z" fill="#EC8000" fill-opacity="1.000000" fill-rule="evenodd"/>
	<path id="10:30am" d="M73.2715 128L72.1816 128L72.1816 120.775L69.9961 121.578L69.9961 120.594L73.1016 119.428L73.2715 119.428L73.2715 128ZM81.7969 124.361Q81.7969 126.266 81.1465 127.191Q80.4961 128.117 79.1133 128.117Q77.748 128.117 77.0918 127.212Q76.4355 126.307 76.4121 124.508L76.4121 123.061Q76.4121 121.18 77.0625 120.266Q77.7129 119.352 79.1016 119.352Q80.4785 119.352 81.1289 120.233Q81.7793 121.115 81.7969 122.955L81.7969 124.361ZM80.7129 122.879Q80.7129 121.502 80.3262 120.872Q79.9395 120.242 79.1016 120.242Q78.2695 120.242 77.8887 120.869Q77.5078 121.496 77.4961 122.797L77.4961 124.531Q77.4961 125.914 77.8975 126.573Q78.2988 127.232 79.1133 127.232Q79.916 127.232 80.3057 126.611Q80.6953 125.99 80.7129 124.654L80.7129 122.879ZM83.2617 127.432Q83.2617 127.15 83.4287 126.963Q83.5957 126.775 83.9297 126.775Q84.2637 126.775 84.4365 126.963Q84.6094 127.15 84.6094 127.432Q84.6094 127.701 84.4365 127.883Q84.2637 128.064 83.9297 128.064Q83.5957 128.064 83.4287 127.883Q83.2617 127.701 83.2617 127.432ZM83.2676 122.258Q83.2676 121.977 83.4346 121.789Q83.6016 121.602 83.9355 121.602Q84.2695 121.602 84.4424 121.789Q84.6152 121.977 84.6152 122.258Q84.6152 122.527 84.4424 122.709Q84.2695 122.891 83.9355 122.891Q83.6016 122.891 83.4346 122.709Q83.2676 122.527 83.2676 122.258ZM87.668 123.207L88.4824 123.207Q89.25 123.195 89.6895 122.803Q90.1289 122.41 90.1289 121.742Q90.1289 120.242 88.6348 120.242Q87.9316 120.242 87.5127 120.644Q87.0938 121.045 87.0938 121.707L86.0098 121.707Q86.0098 120.693 86.751 120.022Q87.4922 119.352 88.6348 119.352Q89.8418 119.352 90.5273 119.99Q91.2129 120.629 91.2129 121.766Q91.2129 122.322 90.8525 122.844Q90.4922 123.365 89.8711 123.623Q90.5742 123.846 90.958 124.361Q91.3418 124.877 91.3418 125.621Q91.3418 126.77 90.5918 127.443Q89.8418 128.117 88.6406 128.117Q87.4395 128.117 86.6865 127.467Q85.9336 126.816 85.9336 125.75L87.0234 125.75Q87.0234 126.424 87.4629 126.828Q87.9023 127.232 88.6406 127.232Q89.4258 127.232 89.8418 126.822Q90.2578 126.412 90.2578 125.645Q90.2578 124.9 89.8008 124.502Q89.3438 124.104 88.4824 124.092L87.668 124.092L87.668 123.207ZM98.1797 124.361Q98.1797 126.266 97.5293 127.191Q96.8789 128.117 95.4961 128.117Q94.1309 128.117 93.4746 127.212Q92.8184 126.307 92.7949 124.508L92.7949 123.061Q92.7949 121.18 93.4453 120.266Q94.0957 119.352 95.4844 119.352Q96.8613 119.352 97.5117 120.233Q98.1621 121.115 98.1797 122.955L98.1797 124.361ZM97.0957 122.879Q97.0957 121.502 96.709 120.872Q96.3223 120.242 95.4844 120.242Q94.6523 120.242 94.2715 120.869Q93.8906 121.496 93.8789 122.797L93.8789 124.531Q93.8789 125.914 94.2803 126.573Q94.6816 127.232 95.4961 127.232Q96.2988 127.232 96.6885 126.611Q97.0781 125.99 97.0957 124.654L97.0957 122.879ZM103.594 128Q103.5 127.812 103.441 127.332Q102.686 128.117 101.637 128.117Q100.699 128.117 100.099 127.587Q99.498 127.057 99.498 126.242Q99.498 125.252 100.251 124.704Q101.004 124.156 102.369 124.156L103.424 124.156L103.424 123.658Q103.424 123.09 103.084 122.753Q102.744 122.416 102.082 122.416Q101.502 122.416 101.109 122.709Q100.717 123.002 100.717 123.418L99.627 123.418Q99.627 122.943 99.9639 122.501Q100.301 122.059 100.878 121.801Q101.455 121.543 102.146 121.543Q103.242 121.543 103.863 122.091Q104.484 122.639 104.508 123.6L104.508 126.518Q104.508 127.391 104.73 127.906L104.73 128L103.594 128ZM101.795 127.174Q102.305 127.174 102.762 126.91Q103.219 126.646 103.424 126.225L103.424 124.924L102.574 124.924Q100.582 124.924 100.582 126.09Q100.582 126.6 100.922 126.887Q101.262 127.174 101.795 127.174ZM107.227 121.66L107.256 122.363Q107.953 121.543 109.137 121.543Q110.467 121.543 110.947 122.562Q111.264 122.105 111.771 121.824Q112.277 121.543 112.969 121.543Q115.055 121.543 115.09 123.752L115.09 128L114.006 128L114.006 123.816Q114.006 123.137 113.695 122.8Q113.385 122.463 112.652 122.463Q112.049 122.463 111.65 122.823Q111.252 123.184 111.188 123.793L111.188 128L110.098 128L110.098 123.846Q110.098 122.463 108.744 122.463Q107.678 122.463 107.285 123.371L107.285 128L106.201 128L106.201 121.66L107.227 121.66Z" fill="#EC8000" fill-opacity="1.000000" fill-rule="evenodd"/>
	<path id="Package delivered" d="M2.46777 153.104L2.46777 157L1.15527 157L1.15527 147.047L4.82617 147.047Q6.45996 147.047 7.38623 147.881Q8.3125 148.715 8.3125 150.089Q8.3125 151.538 7.40674 152.321Q6.50098 153.104 4.8125 153.104L2.46777 153.104ZM2.46777 152.03L4.82617 152.03Q5.87891 152.03 6.43945 151.535Q7 151.039 7 150.103Q7 149.214 6.43945 148.681Q5.87891 148.147 4.90137 148.127L2.46777 148.127L2.46777 152.03ZM14.2803 157Q14.1709 156.781 14.1025 156.221Q13.2207 157.137 11.9971 157.137Q10.9033 157.137 10.2026 156.518Q9.50195 155.899 9.50195 154.949Q9.50195 153.794 10.3804 153.155Q11.2588 152.516 12.8516 152.516L14.082 152.516L14.082 151.935Q14.082 151.271 13.6855 150.878Q13.2891 150.485 12.5166 150.485Q11.8398 150.485 11.3818 150.827Q10.9238 151.169 10.9238 151.654L9.65234 151.654Q9.65234 151.101 10.0454 150.584Q10.4385 150.068 11.1118 149.768Q11.7852 149.467 12.5918 149.467Q13.8701 149.467 14.5947 150.106Q15.3193 150.745 15.3467 151.866L15.3467 155.271Q15.3467 156.289 15.6064 156.891L15.6064 157L14.2803 157ZM12.1816 156.036Q12.7764 156.036 13.3096 155.729Q13.8428 155.421 14.082 154.929L14.082 153.411L13.0908 153.411Q10.7666 153.411 10.7666 154.771Q10.7666 155.366 11.1631 155.701Q11.5596 156.036 12.1816 156.036ZM20.2959 156.104Q20.9727 156.104 21.4785 155.694Q21.9844 155.284 22.0391 154.669L23.2354 154.669Q23.2012 155.305 22.7979 155.879Q22.3945 156.453 21.7212 156.795Q21.0479 157.137 20.2959 157.137Q18.7852 157.137 17.8931 156.128Q17.001 155.12 17.001 153.37L17.001 153.158Q17.001 152.078 17.3975 151.237Q17.7939 150.396 18.5356 149.932Q19.2773 149.467 20.2891 149.467Q21.5332 149.467 22.3569 150.212Q23.1807 150.957 23.2354 152.146L22.0391 152.146Q21.9844 151.429 21.4956 150.967Q21.0068 150.506 20.2891 150.506Q19.3252 150.506 18.7954 151.2Q18.2656 151.894 18.2656 153.206L18.2656 153.445Q18.2656 154.724 18.792 155.414Q19.3184 156.104 20.2959 156.104ZM26.7217 153.575L25.9287 154.402L25.9287 157L24.6641 157L24.6641 146.5L25.9287 146.5L25.9287 152.851L26.6055 152.037L28.9092 149.604L30.4473 149.604L27.5693 152.693L30.7822 157L29.2988 157L26.7217 153.575ZM36.3193 157Q36.21 156.781 36.1416 156.221Q35.2598 157.137 34.0361 157.137Q32.9424 157.137 32.2417 156.518Q31.541 155.899 31.541 154.949Q31.541 153.794 32.4194 153.155Q33.2979 152.516 34.8906 152.516L36.1211 152.516L36.1211 151.935Q36.1211 151.271 35.7246 150.878Q35.3281 150.485 34.5557 150.485Q33.8789 150.485 33.4209 150.827Q32.9629 151.169 32.9629 151.654L31.6914 151.654Q31.6914 151.101 32.0845 150.584Q32.4775 150.068 33.1509 149.768Q33.8242 149.467 34.6309 149.467Q35.9092 149.467 36.6338 150.106Q37.3584 150.745 37.3857 151.866L37.3857 155.271Q37.3857 156.289 37.6455 156.891L37.6455 157L36.3193 157ZM34.2207 156.036Q34.8154 156.036 35.3486 155.729Q35.8818 155.421 36.1211 154.929L36.1211 153.411L35.1299 153.411Q32.8057 153.411 32.8057 154.771Q32.8057 155.366 33.2021 155.701Q33.5986 156.036 34.2207 156.036ZM39.0674 153.24Q39.0674 151.511 39.8672 150.489Q40.667 149.467 41.9863 149.467Q43.3398 149.467 44.0986 150.424L44.1602 149.604L45.3154 149.604L45.3154 156.822Q45.3154 158.258 44.4644 159.085Q43.6133 159.912 42.1777 159.912Q41.3779 159.912 40.6123 159.57Q39.8467 159.229 39.4434 158.634L40.0996 157.875Q40.9131 158.88 42.0889 158.88Q43.0117 158.88 43.5278 158.36Q44.0439 157.841 44.0439 156.897L44.0439 156.262Q43.2852 157.137 41.9727 157.137Q40.6738 157.137 39.8706 156.091Q39.0674 155.045 39.0674 153.24ZM40.3389 153.384Q40.3389 154.635 40.8516 155.349Q41.3643 156.063 42.2871 156.063Q43.4834 156.063 44.0439 154.977L44.0439 151.6Q43.4629 150.54 42.3008 150.54Q41.3779 150.54 40.8584 151.258Q40.3389 151.976 40.3389 153.384ZM50.292 157.137Q48.7881 157.137 47.8447 156.149Q46.9014 155.161 46.9014 153.507L46.9014 153.274Q46.9014 152.174 47.3218 151.309Q47.7422 150.444 48.4976 149.956Q49.2529 149.467 50.1348 149.467Q51.5771 149.467 52.377 150.417Q53.1768 151.367 53.1768 153.138L53.1768 153.664L48.166 153.664Q48.1934 154.758 48.8052 155.431Q49.417 156.104 50.3604 156.104Q51.0303 156.104 51.4951 155.831Q51.96 155.558 52.3086 155.106L53.0811 155.708Q52.1514 157.137 50.292 157.137ZM50.1348 150.506Q49.3691 150.506 48.8496 151.063Q48.3301 151.62 48.207 152.625L51.9121 152.625L51.9121 152.529Q51.8574 151.565 51.3926 151.036Q50.9277 150.506 50.1348 150.506ZM57.7979 153.24Q57.7979 151.538 58.6045 150.502Q59.4111 149.467 60.7168 149.467Q62.0156 149.467 62.7744 150.355L62.7744 146.5L64.0391 146.5L64.0391 157L62.877 157L62.8154 156.207Q62.0566 157.137 60.7031 157.137Q59.418 157.137 58.6079 156.084Q57.7979 155.031 57.7979 153.336L57.7979 153.24ZM59.0625 153.384Q59.0625 154.642 59.582 155.353Q60.1016 156.063 61.0176 156.063Q62.2207 156.063 62.7744 154.983L62.7744 151.586Q62.207 150.54 61.0312 150.54Q60.1016 150.54 59.582 151.258Q59.0625 151.976 59.0625 153.384ZM69.0703 157.137Q67.5664 157.137 66.623 156.149Q65.6797 155.161 65.6797 153.507L65.6797 153.274Q65.6797 152.174 66.1001 151.309Q66.5205 150.444 67.2759 149.956Q68.0312 149.467 68.9131 149.467Q70.3555 149.467 71.1553 150.417Q71.9551 151.367 71.9551 153.138L71.9551 153.664L66.9443 153.664Q66.9717 154.758 67.5835 155.431Q68.1953 156.104 69.1387 156.104Q69.8086 156.104 70.2734 155.831Q70.7383 155.558 71.0869 155.106L71.8594 155.708Q70.9297 157.137 69.0703 157.137ZM68.9131 150.506Q68.1475 150.506 67.6279 151.063Q67.1084 151.62 66.9854 152.625L70.6904 152.625L70.6904 152.529Q70.6357 151.565 70.1709 151.036Q69.7061 150.506 68.9131 150.506ZM74.792 157L73.5273 157L73.5273 146.5L74.792 146.5L74.792 157ZM78.1895 157L76.9248 157L76.9248 149.604L78.1895 149.604L78.1895 157ZM76.8223 147.642Q76.8223 147.334 77.0103 147.122Q77.1982 146.91 77.5674 146.91Q77.9365 146.91 78.1279 147.122Q78.3193 147.334 78.3193 147.642Q78.3193 147.949 78.1279 148.154Q77.9365 148.359 77.5674 148.359Q77.1982 148.359 77.0103 148.154Q76.8223 147.949 76.8223 147.642ZM82.6533 155.284L84.4854 149.604L85.7773 149.604L83.125 157L82.1611 157L79.4814 149.604L80.7734 149.604L82.6533 155.284ZM89.9746 157.137Q88.4707 157.137 87.5273 156.149Q86.584 155.161 86.584 153.507L86.584 153.274Q86.584 152.174 87.0044 151.309Q87.4248 150.444 88.1802 149.956Q88.9355 149.467 89.8174 149.467Q91.2598 149.467 92.0596 150.417Q92.8594 151.367 92.8594 153.138L92.8594 153.664L87.8486 153.664Q87.876 154.758 88.4878 155.431Q89.0996 156.104 90.043 156.104Q90.7129 156.104 91.1777 155.831Q91.6426 155.558 91.9912 155.106L92.7637 155.708Q91.834 157.137 89.9746 157.137ZM89.8174 150.506Q89.0518 150.506 88.5322 151.063Q88.0127 151.62 87.8896 152.625L91.5947 152.625L91.5947 152.529Q91.54 151.565 91.0752 151.036Q90.6104 150.506 89.8174 150.506ZM97.8975 150.738Q97.6104 150.69 97.2754 150.69Q96.0312 150.69 95.5869 151.75L95.5869 157L94.3223 157L94.3223 149.604L95.5527 149.604L95.5732 150.458Q96.1953 149.467 97.3369 149.467Q97.7061 149.467 97.8975 149.562L97.8975 150.738ZM101.999 157.137Q100.495 157.137 99.5518 156.149Q98.6084 155.161 98.6084 153.507L98.6084 153.274Q98.6084 152.174 99.0288 151.309Q99.4492 150.444 100.205 149.956Q100.96 149.467 101.842 149.467Q103.284 149.467 104.084 150.417Q104.884 151.367 104.884 153.138L104.884 153.664L99.873 153.664Q99.9004 154.758 100.512 155.431Q101.124 156.104 102.067 156.104Q102.737 156.104 103.202 155.831Q103.667 155.558 104.016 155.106L104.788 155.708Q103.858 157.137 101.999 157.137ZM101.842 150.506Q101.076 150.506 100.557 151.063Q100.037 151.62 99.9141 152.625L103.619 152.625L103.619 152.529Q103.564 151.565 103.1 151.036Q102.635 150.506 101.842 150.506ZM106.039 153.24Q106.039 151.538 106.846 150.502Q107.652 149.467 108.958 149.467Q110.257 149.467 111.016 150.355L111.016 146.5L112.28 146.5L112.28 157L111.118 157L111.057 156.207Q110.298 157.137 108.944 157.137Q107.659 157.137 106.849 156.084Q106.039 155.031 106.039 153.336L106.039 153.24ZM107.304 153.384Q107.304 154.642 107.823 155.353Q108.343 156.063 109.259 156.063Q110.462 156.063 111.016 154.983L111.016 151.586Q110.448 150.54 109.272 150.54Q108.343 150.54 107.823 151.258Q107.304 151.976 107.304 153.384Z" fill="#0560FA" fill-opacity="1.000000" fill-rule="evenodd"/>
	<path id="July 7 2022" d="M4.56445 167.469L5.69531 167.469L5.69531 173.51Q5.69531 174.734 4.95996 175.426Q4.22461 176.117 3 176.117Q1.72852 176.117 1.01953 175.467Q0.310547 174.816 0.310547 173.645L1.43555 173.645Q1.43555 174.377 1.83691 174.787Q2.23828 175.197 3 175.197Q3.69727 175.197 4.12793 174.758Q4.55859 174.318 4.56445 173.527L4.56445 167.469ZM11.3555 175.373Q10.7227 176.117 9.49805 176.117Q8.48438 176.117 7.9541 175.528Q7.42383 174.939 7.41797 173.785L7.41797 169.66L8.50195 169.66L8.50195 173.756Q8.50195 175.197 9.67383 175.197Q10.916 175.197 11.3262 174.271L11.3262 169.66L12.4102 169.66L12.4102 176L11.3789 176L11.3555 175.373ZM15.2344 176L14.1504 176L14.1504 167L15.2344 167L15.2344 176ZM19.043 174.412L20.5195 169.66L21.6797 169.66L19.1309 176.979Q18.5391 178.561 17.25 178.561L17.0449 178.543L16.6406 178.467L16.6406 177.588L16.9336 177.611Q17.4844 177.611 17.792 177.389Q18.0996 177.166 18.2988 176.574L18.5391 175.93L16.2773 169.66L17.4609 169.66L19.043 174.412ZM31.0137 168.078L27.4805 176L26.3438 176L29.8652 168.359L25.248 168.359L25.248 167.469L31.0137 167.469L31.0137 168.078ZM40.8047 176L35.2148 176L35.2148 175.221L38.168 171.939Q38.8242 171.195 39.0732 170.729Q39.3223 170.264 39.3223 169.766Q39.3223 169.098 38.918 168.67Q38.5137 168.242 37.8398 168.242Q37.0312 168.242 36.583 168.702Q36.1348 169.162 36.1348 169.982L35.0508 169.982Q35.0508 168.805 35.8096 168.078Q36.5684 167.352 37.8398 167.352Q39.0293 167.352 39.7207 167.976Q40.4121 168.6 40.4121 169.637Q40.4121 170.896 38.8066 172.637L36.5215 175.115L40.8047 175.115L40.8047 176ZM47.3027 172.361Q47.3027 174.266 46.6523 175.191Q46.002 176.117 44.6191 176.117Q43.2539 176.117 42.5977 175.212Q41.9414 174.307 41.918 172.508L41.918 171.061Q41.918 169.18 42.5684 168.266Q43.2188 167.352 44.6074 167.352Q45.9844 167.352 46.6348 168.233Q47.2852 169.115 47.3027 170.955L47.3027 172.361ZM46.2188 170.879Q46.2188 169.502 45.832 168.872Q45.4453 168.242 44.6074 168.242Q43.7754 168.242 43.3945 168.869Q43.0137 169.496 43.002 170.797L43.002 172.531Q43.002 173.914 43.4033 174.573Q43.8047 175.232 44.6191 175.232Q45.4219 175.232 45.8115 174.611Q46.2012 173.99 46.2188 172.654L46.2188 170.879ZM54.2812 176L48.6914 176L48.6914 175.221L51.6445 171.939Q52.3008 171.195 52.5498 170.729Q52.7988 170.264 52.7988 169.766Q52.7988 169.098 52.3945 168.67Q51.9902 168.242 51.3164 168.242Q50.5078 168.242 50.0596 168.702Q49.6113 169.162 49.6113 169.982L48.5273 169.982Q48.5273 168.805 49.2861 168.078Q50.0449 167.352 51.3164 167.352Q52.5059 167.352 53.1973 167.976Q53.8887 168.6 53.8887 169.637Q53.8887 170.896 52.2832 172.637L49.998 175.115L54.2812 175.115L54.2812 176ZM61.0195 176L55.4297 176L55.4297 175.221L58.3828 171.939Q59.0391 171.195 59.2881 170.729Q59.5371 170.264 59.5371 169.766Q59.5371 169.098 59.1328 168.67Q58.7285 168.242 58.0547 168.242Q57.2461 168.242 56.7979 168.702Q56.3496 169.162 56.3496 169.982L55.2656 169.982Q55.2656 168.805 56.0244 168.078Q56.7832 167.352 58.0547 167.352Q59.2441 167.352 59.9355 167.976Q60.627 168.6 60.627 169.637Q60.627 170.896 59.0215 172.637L56.7363 175.115L61.0195 175.115L61.0195 176Z" fill="#EC8000" fill-opacity="1.000000" fill-rule="evenodd"/>
	<path id="03:30am" d="M75.0586 172.361Q75.0586 174.266 74.4082 175.191Q73.7578 176.117 72.375 176.117Q71.0098 176.117 70.3535 175.212Q69.6973 174.307 69.6738 172.508L69.6738 171.061Q69.6738 169.18 70.3242 168.266Q70.9746 167.352 72.3633 167.352Q73.7402 167.352 74.3906 168.233Q75.041 169.115 75.0586 170.955L75.0586 172.361ZM73.9746 170.879Q73.9746 169.502 73.5879 168.872Q73.2012 168.242 72.3633 168.242Q71.5312 168.242 71.1504 168.869Q70.7695 169.496 70.7578 170.797L70.7578 172.531Q70.7578 173.914 71.1592 174.573Q71.5605 175.232 72.375 175.232Q73.1777 175.232 73.5674 174.611Q73.957 173.99 73.9746 172.654L73.9746 170.879ZM78.0234 171.207L78.8379 171.207Q79.6055 171.195 80.0449 170.803Q80.4844 170.41 80.4844 169.742Q80.4844 168.242 78.9902 168.242Q78.2871 168.242 77.8682 168.644Q77.4492 169.045 77.4492 169.707L76.3652 169.707Q76.3652 168.693 77.1064 168.022Q77.8477 167.352 78.9902 167.352Q80.1973 167.352 80.8828 167.99Q81.5684 168.629 81.5684 169.766Q81.5684 170.322 81.208 170.844Q80.8477 171.365 80.2266 171.623Q80.9297 171.846 81.3135 172.361Q81.6973 172.877 81.6973 173.621Q81.6973 174.77 80.9473 175.443Q80.1973 176.117 78.9961 176.117Q77.7949 176.117 77.042 175.467Q76.2891 174.816 76.2891 173.75L77.3789 173.75Q77.3789 174.424 77.8184 174.828Q78.2578 175.232 78.9961 175.232Q79.7812 175.232 80.1973 174.822Q80.6133 174.412 80.6133 173.645Q80.6133 172.9 80.1562 172.502Q79.6992 172.104 78.8379 172.092L78.0234 172.092L78.0234 171.207ZM83.2617 175.432Q83.2617 175.15 83.4287 174.963Q83.5957 174.775 83.9297 174.775Q84.2637 174.775 84.4365 174.963Q84.6094 175.15 84.6094 175.432Q84.6094 175.701 84.4365 175.883Q84.2637 176.064 83.9297 176.064Q83.5957 176.064 83.4287 175.883Q83.2617 175.701 83.2617 175.432ZM83.2676 170.258Q83.2676 169.977 83.4346 169.789Q83.6016 169.602 83.9355 169.602Q84.2695 169.602 84.4424 169.789Q84.6152 169.977 84.6152 170.258Q84.6152 170.527 84.4424 170.709Q84.2695 170.891 83.9355 170.891Q83.6016 170.891 83.4346 170.709Q83.2676 170.527 83.2676 170.258ZM87.668 171.207L88.4824 171.207Q89.25 171.195 89.6895 170.803Q90.1289 170.41 90.1289 169.742Q90.1289 168.242 88.6348 168.242Q87.9316 168.242 87.5127 168.644Q87.0938 169.045 87.0938 169.707L86.0098 169.707Q86.0098 168.693 86.751 168.022Q87.4922 167.352 88.6348 167.352Q89.8418 167.352 90.5273 167.99Q91.2129 168.629 91.2129 169.766Q91.2129 170.322 90.8525 170.844Q90.4922 171.365 89.8711 171.623Q90.5742 171.846 90.958 172.361Q91.3418 172.877 91.3418 173.621Q91.3418 174.77 90.5918 175.443Q89.8418 176.117 88.6406 176.117Q87.4395 176.117 86.6865 175.467Q85.9336 174.816 85.9336 173.75L87.0234 173.75Q87.0234 174.424 87.4629 174.828Q87.9023 175.232 88.6406 175.232Q89.4258 175.232 89.8418 174.822Q90.2578 174.412 90.2578 173.645Q90.2578 172.9 89.8008 172.502Q89.3438 172.104 88.4824 172.092L87.668 172.092L87.668 171.207ZM98.1797 172.361Q98.1797 174.266 97.5293 175.191Q96.8789 176.117 95.4961 176.117Q94.1309 176.117 93.4746 175.212Q92.8184 174.307 92.7949 172.508L92.7949 171.061Q92.7949 169.18 93.4453 168.266Q94.0957 167.352 95.4844 167.352Q96.8613 167.352 97.5117 168.233Q98.1621 169.115 98.1797 170.955L98.1797 172.361ZM97.0957 170.879Q97.0957 169.502 96.709 168.872Q96.3223 168.242 95.4844 168.242Q94.6523 168.242 94.2715 168.869Q93.8906 169.496 93.8789 170.797L93.8789 172.531Q93.8789 173.914 94.2803 174.573Q94.6816 175.232 95.4961 175.232Q96.2988 175.232 96.6885 174.611Q97.0781 173.99 97.0957 172.654L97.0957 170.879ZM103.594 176Q103.5 175.812 103.441 175.332Q102.686 176.117 101.637 176.117Q100.699 176.117 100.099 175.587Q99.498 175.057 99.498 174.242Q99.498 173.252 100.251 172.704Q101.004 172.156 102.369 172.156L103.424 172.156L103.424 171.658Q103.424 171.09 103.084 170.753Q102.744 170.416 102.082 170.416Q101.502 170.416 101.109 170.709Q100.717 171.002 100.717 171.418L99.627 171.418Q99.627 170.943 99.9639 170.501Q100.301 170.059 100.878 169.801Q101.455 169.543 102.146 169.543Q103.242 169.543 103.863 170.091Q104.484 170.639 104.508 171.6L104.508 174.518Q104.508 175.391 104.73 175.906L104.73 176L103.594 176ZM101.795 175.174Q102.305 175.174 102.762 174.91Q103.219 174.646 103.424 174.225L103.424 172.924L102.574 172.924Q100.582 172.924 100.582 174.09Q100.582 174.6 100.922 174.887Q101.262 175.174 101.795 175.174ZM107.227 169.66L107.256 170.363Q107.953 169.543 109.137 169.543Q110.467 169.543 110.947 170.562Q111.264 170.105 111.771 169.824Q112.277 169.543 112.969 169.543Q115.055 169.543 115.09 171.752L115.09 176L114.006 176L114.006 171.816Q114.006 171.137 113.695 170.8Q113.385 170.463 112.652 170.463Q112.049 170.463 111.65 170.823Q111.252 171.184 111.188 171.793L111.188 176L110.098 176L110.098 171.846Q110.098 170.463 108.744 170.463Q107.678 170.463 107.285 171.371L107.285 176L106.201 176L106.201 169.66L107.227 169.66Z" fill="#EC8000" fill-opacity="1.000000" fill-rule="evenodd"/>
</svg>
