<svg width="195.357361" height="20.000000" viewBox="0 0 195.357 20" fill="none" xmlns="http://www.w3.org/2000/svg" xmlns:xlink="http://www.w3.org/1999/xlink">
	<desc>
			Created with Pixso.
	</desc>
	<defs/>
	<rect id="vuesax/linear/sun" rx="7.678681" width="15.357363" height="15.357363" transform="translate(0.000000 2.321289)" fill="#0560FA" fill-opacity="1.000000"/>
	<path id="Vector" d="M7.67868 4.24084L7.67868 4.24084" stroke="#FFFFFF" stroke-opacity="1.000000" stroke-width="0.959835" stroke-linejoin="round" stroke-linecap="round"/>
	<path id="Vector" d="M7.67868 12.2394L7.67868 12.2394" stroke="#FFFFFF" stroke-opacity="1.000000" stroke-width="0.959835" stroke-linejoin="round" stroke-linecap="round"/>
	<path id="Vector" d="M6.3989 4.24084L8.95847 4.24084" stroke="#FFFFFF" stroke-opacity="1.000000" stroke-width="0.959835" stroke-linejoin="round" stroke-linecap="round"/>
	<path id="Vector" d="M6.3989 15.7589L8.95847 15.7589" stroke="#FFFFFF" stroke-opacity="1.000000" stroke-width="0.959835" stroke-linejoin="round" stroke-linecap="round"/>
	<path id="Vector" d="M5.73978 8.88007L2.69391 7.12036" stroke="#FFFFFF" stroke-opacity="1.000000" stroke-width="0.959835" stroke-linejoin="round" stroke-linecap="round"/>
	<path id="Vector" d="M12.6634 12.8793L9.61755 11.1196" stroke="#FFFFFF" stroke-opacity="1.000000" stroke-width="0.959835" stroke-linejoin="round" stroke-linecap="round"/>
	<path id="Vector" d="M2.05408 8.22729L3.33386 6.01331" stroke="#FFFFFF" stroke-opacity="1.000000" stroke-width="0.959835" stroke-linejoin="round" stroke-linecap="round"/>
	<path id="Vector" d="M12.0235 13.9863L13.3033 11.7723" stroke="#FFFFFF" stroke-opacity="1.000000" stroke-width="0.959835" stroke-linejoin="round" stroke-linecap="round"/>
	<path id="Vector" d="M9.61758 11.1197C9.22723 11.7916 8.50415 12.2395 7.67871 12.2395C6.85324 12.2395 6.13016 11.7916 5.73984 11.1197C5.54788 10.7869 5.43909 10.4094 5.43909 9.99988C5.43909 9.59033 5.54788 9.21283 5.73984 8.88007C6.13016 8.20819 6.85324 7.76025 7.67871 7.76025C8.50415 7.76025 9.22723 8.20819 9.61758 8.88007C9.80954 9.21283 9.9183 9.59033 9.9183 9.99988C9.9183 10.4094 9.80954 10.7869 9.61758 11.1197Z" stroke="#FFFFFF" stroke-opacity="1.000000" stroke-width="0.959835" stroke-linejoin="round"/>
	<path id="Vector" d="M12.6634 7.12036L9.61755 8.88007" stroke="#FFFFFF" stroke-opacity="1.000000" stroke-width="0.959835" stroke-linejoin="round" stroke-linecap="round"/>
	<path id="Vector" d="M5.73978 11.1196L2.69391 12.8793" stroke="#FFFFFF" stroke-opacity="1.000000" stroke-width="0.959835" stroke-linejoin="round" stroke-linecap="round"/>
	<path id="Vector" d="M13.3033 8.22729L12.0235 6.01331" stroke="#FFFFFF" stroke-opacity="1.000000" stroke-width="0.959835" stroke-linejoin="round" stroke-linecap="round"/>
	<path id="Vector" d="M3.33386 13.9863L2.05408 11.7723" stroke="#FFFFFF" stroke-opacity="1.000000" stroke-width="0.959835" stroke-linejoin="round" stroke-linecap="round"/>
	<g opacity="0.000000">
		<path id="Vector" d="M15.3574 2.32129L15.3574 17.6786L0 17.6786L0 2.32129L15.3574 2.32129Z" stroke="#FFFFFF" stroke-opacity="1.000000" stroke-width="0.639890"/>
	</g>
	<path id="R-7458-4567-4434-5854" d="M28.8495 10.3984L26.1777 10.3984L26.1777 15L24.6699 15L24.6699 3.625L28.4355 3.625Q30.3574 3.625 31.3925 4.5Q32.4277 5.375 32.4277 7.04688Q32.4277 8.10938 31.8535 8.89844Q31.2792 9.6875 30.2558 10.0781L32.9277 14.9062L32.9277 15L31.3183 15L28.8495 10.3984ZM26.1777 9.17188L28.4824 9.17188Q29.5995 9.17188 30.2597 8.59375Q30.9199 8.01562 30.9199 7.04688Q30.9199 5.99219 30.291 5.42969Q29.662 4.86719 28.4745 4.85938L26.1777 4.85938L26.1777 9.17188ZM37.3105 10.7578L33.498 10.7578L33.498 9.57812L37.3105 9.57812L37.3105 10.7578ZM45.912 4.4375L41.2011 15L39.6855 15L44.3808 4.8125L38.2245 4.8125L38.2245 3.625L45.912 3.625L45.912 4.4375ZM53.6542 11.1797L55.2324 11.1797L55.2324 12.3594L53.6542 12.3594L53.6542 15L52.2011 15L52.2011 12.3594L47.0214 12.3594L47.0214 11.5078L52.1152 3.625L53.6542 3.625L53.6542 11.1797ZM48.662 11.1797L52.2011 11.1797L52.2011 5.60156L52.0292 5.91406L48.662 11.1797ZM57.2011 9.29688L57.7792 3.625L63.6074 3.625L63.6074 4.96094L59.0058 4.96094L58.662 8.0625Q59.498 7.57031 60.5605 7.57031Q62.1152 7.57031 63.0292 8.59766Q63.9433 9.625 63.9433 11.375Q63.9433 13.1328 62.9941 14.1445Q62.0449 15.1562 60.3417 15.1562Q58.8339 15.1562 57.8808 14.3203Q56.9277 13.4844 56.7949 12.0078L58.162 12.0078Q58.2949 12.9844 58.8574 13.4805Q59.4199 13.9766 60.3417 13.9766Q61.3495 13.9766 61.9238 13.2891Q62.498 12.6016 62.498 11.3906Q62.498 10.25 61.8769 9.55859Q61.2558 8.86719 60.2245 8.86719Q59.2792 8.86719 58.7402 9.28125L58.3574 9.59375L57.2011 9.29688ZM72.4199 6.59375Q72.4199 7.44531 71.9706 8.10938Q71.5214 8.77344 70.7558 9.14844Q71.6464 9.53125 72.166 10.2656Q72.6855 11 72.6855 11.9297Q72.6855 13.4062 71.6894 14.2812Q70.6933 15.1562 69.0683 15.1562Q67.4277 15.1562 66.4394 14.2773Q65.4511 13.3984 65.4511 11.9297Q65.4511 11.0078 65.955 10.2656Q66.4589 9.52344 67.3495 9.14062Q66.5917 8.76562 66.1542 8.10156Q65.7167 7.4375 65.7167 6.59375Q65.7167 5.15625 66.6386 4.3125Q67.5605 3.46875 69.0683 3.46875Q70.5683 3.46875 71.4941 4.3125Q72.4199 5.15625 72.4199 6.59375ZM71.2402 11.8984Q71.2402 10.9453 70.6347 10.3438Q70.0292 9.74219 69.0527 9.74219Q68.0761 9.74219 67.4863 10.3359Q66.8964 10.9297 66.8964 11.8984Q66.8964 12.8672 67.4706 13.4219Q68.0449 13.9766 69.0683 13.9766Q70.0839 13.9766 70.662 13.418Q71.2402 12.8594 71.2402 11.8984ZM69.0683 4.65625Q68.2167 4.65625 67.6894 5.18359Q67.162 5.71094 67.162 6.61719Q67.162 7.48438 67.6816 8.01953Q68.2011 8.55469 69.0683 8.55469Q69.9355 8.55469 70.455 8.01953Q70.9745 7.48438 70.9745 6.61719Q70.9745 5.75 70.4355 5.20312Q69.8964 4.65625 69.0683 4.65625ZM77.662 10.7578L73.8495 10.7578L73.8495 9.57812L77.662 9.57812L77.662 10.7578ZM85.0214 11.1797L86.5995 11.1797L86.5995 12.3594L85.0214 12.3594L85.0214 15L83.5683 15L83.5683 12.3594L78.3886 12.3594L78.3886 11.5078L83.4824 3.625L85.0214 3.625L85.0214 11.1797ZM80.0292 11.1797L83.5683 11.1797L83.5683 5.60156L83.3964 5.91406L80.0292 11.1797ZM88.5683 9.29688L89.1464 3.625L94.9745 3.625L94.9745 4.96094L90.373 4.96094L90.0292 8.0625Q90.8652 7.57031 91.9277 7.57031Q93.4824 7.57031 94.3964 8.59766Q95.3105 9.625 95.3105 11.375Q95.3105 13.1328 94.3613 14.1445Q93.412 15.1562 91.7089 15.1562Q90.2011 15.1562 89.248 14.3203Q88.2949 13.4844 88.162 12.0078L89.5292 12.0078Q89.662 12.9844 90.2245 13.4805Q90.787 13.9766 91.7089 13.9766Q92.7167 13.9766 93.291 13.2891Q93.8652 12.6016 93.8652 11.3906Q93.8652 10.25 93.2441 9.55859Q92.623 8.86719 91.5917 8.86719Q90.6464 8.86719 90.1074 9.28125L89.7245 9.59375L88.5683 9.29688ZM102.56 3.61719L102.56 4.84375L102.295 4.84375Q100.607 4.875 99.6074 5.84375Q98.6074 6.8125 98.4511 8.57031Q99.3495 7.53906 100.904 7.53906Q102.389 7.53906 103.275 8.58594Q104.162 9.63281 104.162 11.2891Q104.162 13.0469 103.205 14.1016Q102.248 15.1562 100.639 15.1562Q99.0058 15.1562 97.9902 13.9023Q96.9745 12.6484 96.9745 10.6719L96.9745 10.1172Q96.9745 6.97656 98.3144 5.31641Q99.6542 3.65625 102.303 3.61719L102.56 3.61719ZM100.662 8.74219Q99.9199 8.74219 99.2949 9.1875Q98.6699 9.63281 98.4277 10.3047L98.4277 10.8359Q98.4277 12.2422 99.0605 13.1016Q99.6933 13.9609 100.639 13.9609Q101.615 13.9609 102.174 13.2422Q102.732 12.5234 102.732 11.3594Q102.732 10.1875 102.166 9.46484Q101.6 8.74219 100.662 8.74219ZM113.217 4.4375L108.506 15L106.99 15L111.685 4.8125L105.529 4.8125L105.529 3.625L113.217 3.625L113.217 4.4375ZM118.014 10.7578L114.201 10.7578L114.201 9.57812L118.014 9.57812L118.014 10.7578ZM125.373 11.1797L126.951 11.1797L126.951 12.3594L125.373 12.3594L125.373 15L123.92 15L123.92 12.3594L118.74 12.3594L118.74 11.5078L123.834 3.625L125.373 3.625L125.373 11.1797ZM120.381 11.1797L123.92 11.1797L123.92 5.60156L123.748 5.91406L120.381 11.1797ZM134.357 11.1797L135.935 11.1797L135.935 12.3594L134.357 12.3594L134.357 15L132.904 15L132.904 12.3594L127.725 12.3594L127.725 11.5078L132.818 3.625L134.357 3.625L134.357 11.1797ZM129.365 11.1797L132.904 11.1797L132.904 5.60156L132.732 5.91406L129.365 11.1797ZM139.342 8.60938L140.428 8.60938Q141.451 8.59375 142.037 8.07031Q142.623 7.54688 142.623 6.65625Q142.623 4.65625 140.631 4.65625Q139.693 4.65625 139.135 5.19141Q138.576 5.72656 138.576 6.60938L137.131 6.60938Q137.131 5.25781 138.119 4.36328Q139.107 3.46875 140.631 3.46875Q142.24 3.46875 143.154 4.32031Q144.068 5.17188 144.068 6.6875Q144.068 7.42969 143.588 8.125Q143.107 8.82031 142.279 9.16406Q143.217 9.46094 143.728 10.1484Q144.24 10.8359 144.24 11.8281Q144.24 13.3594 143.24 14.2578Q142.24 15.1562 140.639 15.1562Q139.037 15.1562 138.033 14.2891Q137.029 13.4219 137.029 12L138.482 12Q138.482 12.8984 139.068 13.4375Q139.654 13.9766 140.639 13.9766Q141.685 13.9766 142.24 13.4297Q142.795 12.8828 142.795 11.8594Q142.795 10.8672 142.185 10.3359Q141.576 9.80469 140.428 9.78906L139.342 9.78906L139.342 8.60938ZM152.326 11.1797L153.904 11.1797L153.904 12.3594L152.326 12.3594L152.326 15L150.873 15L150.873 12.3594L145.693 12.3594L145.693 11.5078L150.787 3.625L152.326 3.625L152.326 11.1797ZM147.334 11.1797L150.873 11.1797L150.873 5.60156L150.701 5.91406L147.334 11.1797ZM158.365 10.7578L154.553 10.7578L154.553 9.57812L158.365 9.57812L158.365 10.7578ZM160.287 9.29688L160.865 3.625L166.693 3.625L166.693 4.96094L162.092 4.96094L161.748 8.0625Q162.584 7.57031 163.646 7.57031Q165.201 7.57031 166.115 8.59766Q167.029 9.625 167.029 11.375Q167.029 13.1328 166.08 14.1445Q165.131 15.1562 163.428 15.1562Q161.92 15.1562 160.967 14.3203Q160.014 13.4844 159.881 12.0078L161.248 12.0078Q161.381 12.9844 161.943 13.4805Q162.506 13.9766 163.428 13.9766Q164.435 13.9766 165.01 13.2891Q165.584 12.6016 165.584 11.3906Q165.584 10.25 164.963 9.55859Q164.342 8.86719 163.31 8.86719Q162.365 8.86719 161.826 9.28125L161.443 9.59375L160.287 9.29688ZM175.506 6.59375Q175.506 7.44531 175.057 8.10938Q174.607 8.77344 173.842 9.14844Q174.732 9.53125 175.252 10.2656Q175.771 11 175.771 11.9297Q175.771 13.4062 174.775 14.2812Q173.779 15.1562 172.154 15.1562Q170.514 15.1562 169.525 14.2773Q168.537 13.3984 168.537 11.9297Q168.537 11.0078 169.041 10.2656Q169.545 9.52344 170.435 9.14062Q169.678 8.76562 169.24 8.10156Q168.803 7.4375 168.803 6.59375Q168.803 5.15625 169.725 4.3125Q170.646 3.46875 172.154 3.46875Q173.654 3.46875 174.58 4.3125Q175.506 5.15625 175.506 6.59375ZM174.326 11.8984Q174.326 10.9453 173.721 10.3438Q173.115 9.74219 172.139 9.74219Q171.162 9.74219 170.572 10.3359Q169.982 10.9297 169.982 11.8984Q169.982 12.8672 170.557 13.4219Q171.131 13.9766 172.154 13.9766Q173.17 13.9766 173.748 13.418Q174.326 12.8594 174.326 11.8984ZM172.154 4.65625Q171.303 4.65625 170.775 5.18359Q170.248 5.71094 170.248 6.61719Q170.248 7.48438 170.768 8.01953Q171.287 8.55469 172.154 8.55469Q173.021 8.55469 173.541 8.01953Q174.06 7.48438 174.06 6.61719Q174.06 5.75 173.521 5.20312Q172.982 4.65625 172.154 4.65625ZM178.256 9.29688L178.834 3.625L184.662 3.625L184.662 4.96094L180.06 4.96094L179.717 8.0625Q180.553 7.57031 181.615 7.57031Q183.17 7.57031 184.084 8.59766Q184.998 9.625 184.998 11.375Q184.998 13.1328 184.049 14.1445Q183.1 15.1562 181.396 15.1562Q179.889 15.1562 178.935 14.3203Q177.982 13.4844 177.85 12.0078L179.217 12.0078Q179.35 12.9844 179.912 13.4805Q180.475 13.9766 181.396 13.9766Q182.404 13.9766 182.978 13.2891Q183.553 12.6016 183.553 11.3906Q183.553 10.25 182.932 9.55859Q182.31 8.86719 181.279 8.86719Q180.334 8.86719 179.795 9.28125L179.412 9.59375L178.256 9.29688ZM192.678 11.1797L194.256 11.1797L194.256 12.3594L192.678 12.3594L192.678 15L191.225 15L191.225 12.3594L186.045 12.3594L186.045 11.5078L191.139 3.625L192.678 3.625L192.678 11.1797ZM187.685 11.1797L191.225 11.1797L191.225 5.60156L191.053 5.91406L187.685 11.1797Z" fill="#0560FA" fill-opacity="1.000000" fill-rule="evenodd"/>
</svg>
