<svg width="14.000000" height="158.000000" viewBox="0 0 14 158" fill="none" xmlns="http://www.w3.org/2000/svg" xmlns:xlink="http://www.w3.org/1999/xlink">
	<desc>
			Created with Pixso.
	</desc>
	<defs>
		<clipPath id="clip3_5741">
			<rect id="Checkbox" rx="2.333333" width="14.000001" height="14.000001" fill="white" fill-opacity="0"/>
		</clipPath>
		<clipPath id="clip3_5743">
			<rect id="Checkbox" rx="2.333333" width="14.000001" height="14.000001" transform="translate(0.000000 48.000000)" fill="white" fill-opacity="0"/>
		</clipPath>
		<clipPath id="clip3_5745">
			<rect id="Checkbox" rx="2.333333" width="14.000001" height="14.000001" transform="translate(0.000000 96.000000)" fill="white" fill-opacity="0"/>
		</clipPath>
		<clipPath id="clip3_5747">
			<rect id="Checkbox" rx="2.333333" width="14.000001" height="14.000001" transform="translate(0.000000 144.000000)" fill="white" fill-opacity="0"/>
		</clipPath>
	</defs>
	<rect id="Checkbox" rx="2.333333" width="14.000001" height="14.000001" fill="#0560FA" fill-opacity="1.000000"/>
	<g clip-path="url(#clip3_5741)">
		<path id="Vector" d="M4.08334 6.54169L5.92379 8.58331L9.91667 4.5" stroke="#FFFFFF" stroke-opacity="1.000000" stroke-width="1.166667" stroke-linejoin="round" stroke-linecap="round"/>
	</g>
	<line id="Line 1" x1="7.500000" y1="14.000000" x2="7.500000" y2="48.000000" stroke="#A7A7A7" stroke-opacity="1.000000" stroke-width="1.000000"/>
	<rect id="Checkbox" rx="2.333333" width="14.000001" height="14.000001" transform="translate(0.000000 48.000000)" fill="#0560FA" fill-opacity="1.000000"/>
	<g clip-path="url(#clip3_5743)">
		<path id="Vector" d="M4.08334 54.5417L5.92379 56.5833L9.91667 52.5" stroke="#FFFFFF" stroke-opacity="1.000000" stroke-width="1.166667" stroke-linejoin="round" stroke-linecap="round"/>
	</g>
	<line id="Line 2" x1="7.500000" y1="62.000000" x2="7.500000" y2="96.000000" stroke="#A7A7A7" stroke-opacity="1.000000" stroke-width="1.000000"/>
	<rect id="Checkbox" rx="2.333333" width="14.000001" height="14.000001" transform="translate(0.000000 96.000000)" fill="#0560FA" fill-opacity="1.000000"/>
	<g clip-path="url(#clip3_5745)">
		<path id="Vector" d="M4.08334 102.542L5.92379 104.583L9.91667 100.5" stroke="#FFFFFF" stroke-opacity="1.000000" stroke-width="1.166667" stroke-linejoin="round" stroke-linecap="round"/>
	</g>
	<line id="Line 3" x1="7.500000" y1="110.000000" x2="7.500000" y2="144.000000" stroke="#A7A7A7" stroke-opacity="1.000000" stroke-width="1.000000"/>
	<rect id="Checkbox" rx="2.333333" width="14.000001" height="14.000001" transform="translate(0.000000 144.000000)" fill="#0560FA" fill-opacity="1.000000"/>
	<g clip-path="url(#clip3_5747)">
		<path id="Vector" d="M4.08334 150.542L5.92379 152.583L9.91667 148.5" stroke="#FFFFFF" stroke-opacity="1.000000" stroke-width="1.166667" stroke-linejoin="round" stroke-linecap="round"/>
	</g>
</svg>
