<svg width="21.428558" height="20.000000" viewBox="0 0 21.4286 20" fill="none" xmlns="http://www.w3.org/2000/svg" xmlns:xlink="http://www.w3.org/1999/xlink">
	<desc>
			Created with Pixso.
	</desc>
	<defs/>
	<path id="Vector" d="M10.7143 0L21.4286 4.28572L21.4286 5.71428L20 5.71428C20 5.90775 19.9237 6.07515 19.7712 6.21652C19.6187 6.35788 19.4382 6.42857 19.2299 6.42857L2.19867 6.42857C1.99033 6.42857 1.80991 6.35788 1.65738 6.21652C1.50482 6.07515 1.42856 5.90775 1.42856 5.71428L0 5.71428L0 4.28572L10.7143 0ZM2.85715 7.14285L5.71429 7.14285L5.71429 15.7143L7.14285 15.7143L7.14285 7.14285L10 7.14285L10 15.7143L11.4286 15.7143L11.4286 7.14285L14.2857 7.14285L14.2857 15.7143L15.7143 15.7143L15.7143 7.14285L18.5714 7.14285L18.5714 15.7143L19.2299 15.7143C19.4382 15.7143 19.6187 15.785 19.7712 15.9263C19.9237 16.0677 20 16.2351 20 16.4286L20 17.1429L1.42856 17.1429L1.42856 16.4286C1.42856 16.2351 1.50482 16.0677 1.65738 15.9263C1.80991 15.785 1.99033 15.7143 2.19867 15.7143L2.85715 15.7143L2.85715 7.14285ZM20.6585 17.8571C20.8668 17.8571 21.0472 17.9278 21.1998 18.0692C21.3523 18.2106 21.4286 18.378 21.4286 18.5714L21.4286 20L0 20L0 18.5714C0 18.378 0.0762634 18.2106 0.22879 18.0692C0.381317 17.9278 0.561768 17.8571 0.770081 17.8571L20.6585 17.8571Z" fill="#FFFFFF" fill-opacity="1.000000" fill-rule="nonzero"/>
</svg>
