<svg width="24.000000" height="23.994385" viewBox="0 0 24 23.9944" fill="none" xmlns="http://www.w3.org/2000/svg" xmlns:xlink="http://www.w3.org/1999/xlink">
	<desc>
			Created with Pixso.
	</desc>
	<defs/>
	<path id="Vector" d="M1.5 2.24472L7.50525 2.24475L7.50525 0.75C7.50525 0.335632 7.84088 0 8.25525 0C8.66962 0 9.00525 0.335632 9.00525 0.75L9.00525 2.24438L15.0052 2.24438L15.0052 0.75C15.0052 0.335632 15.3409 0 15.7552 0C16.1696 0 16.5052 0.335632 16.5052 0.75L16.5052 2.24438L22.5 2.24438C23.3284 2.24438 24 2.91599 24 3.74438L24 22.4944C24 23.3227 23.3284 23.9944 22.5 23.9944L1.5 23.9944C0.671631 23.9944 0 23.3227 0 22.4944L0 3.74438C0 2.91635 0.671631 2.24472 1.5 2.24472ZM1.5 22.4944L22.5 22.4944L22.5 3.74438L16.5052 3.74438L16.5052 4.5C16.5052 4.91434 16.1696 5.25 15.7552 5.25C15.3409 5.25 15.0052 4.91434 15.0052 4.5L15.0052 3.74475L9.00525 3.74475L9.00525 4.50037C9.00525 4.91476 8.66962 5.25037 8.25525 5.25037C7.84088 5.25037 7.50525 4.91476 7.50525 4.50037L7.50525 3.74475L1.5 3.74475L1.5 22.4944ZM6.75 11.9947L5.25 11.9947C4.836 11.9947 4.5 11.6587 4.5 11.2447L4.5 9.74472C4.5 9.33072 4.836 8.99472 5.25 8.99472L6.75 8.99472C7.164 8.99472 7.5 9.33072 7.5 9.74472L7.5 11.2447C7.5 11.6587 7.164 11.9947 6.75 11.9947ZM6.75 17.9944L5.25 17.9944C4.836 17.9944 4.5 17.6587 4.5 17.2444L4.5 15.7444C4.5 15.3304 4.836 14.9944 5.25 14.9944L6.75 14.9944C7.164 14.9944 7.5 15.3304 7.5 15.7444L7.5 17.2444C7.5 17.6591 7.164 17.9944 6.75 17.9944ZM11.25 14.9944L12.75 14.9944C13.164 14.9944 13.5 15.3304 13.5 15.7444L13.5 17.2444C13.5 17.6587 13.164 17.9944 12.75 17.9944L11.25 17.9944C10.836 17.9944 10.5 17.6587 10.5 17.2444L10.5 15.7444C10.5 15.3307 10.836 14.9944 11.25 14.9944ZM11.25 8.99472L12.75 8.99472C13.164 8.99472 13.5 9.33072 13.5 9.74472L13.5 11.2447C13.5 11.6587 13.164 11.9947 12.75 11.9947L11.25 11.9947C10.836 11.9947 10.5 11.6587 10.5 11.2447L10.5 9.74472C10.5 9.33035 10.836 8.99472 11.25 8.99472ZM17.25 8.99472L18.75 8.99472C19.164 8.99472 19.5 9.33072 19.5 9.74472L19.5 11.2447C19.5 11.6587 19.164 11.9947 18.75 11.9947L17.25 11.9947C16.836 11.9947 16.5 11.6587 16.5 11.2447L16.5 9.74472C16.5 9.33035 16.836 8.99472 17.25 8.99472ZM17.25 14.9944L18.75 14.9944C19.164 14.9944 19.5 15.3304 19.5 15.7444L19.5 17.2444C19.5 17.6587 19.164 17.9944 18.75 17.9944L17.25 17.9944C16.836 17.9944 16.5 17.6587 16.5 17.2444L16.5 15.7444C16.5 15.3307 16.836 14.9944 17.25 14.9944Z" fill="#A7A7A7" fill-opacity="1.000000" fill-rule="nonzero"/>
</svg>
