<svg width="20.000000" height="15.000000" viewBox="0 0 20 15" fill="none" xmlns="http://www.w3.org/2000/svg" xmlns:xlink="http://www.w3.org/1999/xlink">
	<desc>
			Created with Pixso.
	</desc>
	<defs/>
	<path id="Vector" d="M0 2.5C0 1.83696 0.26339 1.20108 0.732231 0.732239C1.20107 0.263397 1.83696 0 2.5 0L17.5 0C18.163 0 18.7989 0.263397 19.2678 0.732239C19.7366 1.20108 20 1.83696 20 2.5L20 8.75L0 8.75L0 2.5ZM14.375 3.75C14.2092 3.75 14.0503 3.81584 13.9331 3.93306C13.8158 4.05026 13.75 4.20924 13.75 4.375L13.75 5.625C13.75 5.79076 13.8158 5.94974 13.9331 6.06694C14.0503 6.18416 14.2092 6.25 14.375 6.25L16.875 6.25C17.0408 6.25 17.1997 6.18416 17.3169 6.06694C17.4342 5.94974 17.5 5.79076 17.5 5.625L17.5 4.375C17.5 4.20924 17.4342 4.05026 17.3169 3.93306C17.1997 3.81584 17.0408 3.75 16.875 3.75L14.375 3.75ZM0 11.25L0 12.5C0 13.163 0.26339 13.7989 0.732231 14.2678C1.20107 14.7366 1.83696 15 2.5 15L17.5 15C18.163 15 18.7989 14.7366 19.2678 14.2678C19.7366 13.7989 20 13.163 20 12.5L20 11.25L0 11.25Z" fill="#FFFFFF" fill-opacity="1.000000" fill-rule="nonzero"/>
</svg>
