<svg width="8.000000" height="12.792000" viewBox="0 0 8 12.792" fill="none" xmlns="http://www.w3.org/2000/svg" xmlns:xlink="http://www.w3.org/1999/xlink">
	<desc>
			Created with Pixso.
	</desc>
	<defs/>
	<path id="Vector" d="M4 0C1.79041 0 0 1.7832 0 3.992C0 7.8112 4 12.792 4 12.792C4 12.792 8 7.8104 8 3.992C8 1.784 6.20959 0 4 0ZM4 6.2008C3.42712 6.2008 2.87772 5.97323 2.47266 5.56815C2.06757 5.16307 1.84 4.61367 1.84 4.0408C1.84 3.46793 2.06757 2.91853 2.47266 2.51345C2.87772 2.10837 3.42712 1.8808 4 1.8808C4.57288 1.8808 5.12228 2.10837 5.52734 2.51345C5.93243 2.91853 6.16 3.46793 6.16 4.0408C6.16 4.61367 5.93243 5.16307 5.52734 5.56815C5.12228 5.97323 4.57288 6.2008 4 6.2008Z" fill="#0560FA" fill-opacity="1.000000" fill-rule="nonzero"/>
</svg>
