<svg width="14.000000" height="14.000000" viewBox="0 0 14 14" fill="none" xmlns="http://www.w3.org/2000/svg" xmlns:xlink="http://www.w3.org/1999/xlink">
	<desc>
			Created with Pixso.
	</desc>
	<defs/>
	<rect id="vuesax/linear/eye-slash" width="14.000000" height="14.000000" fill="#FFFFFF" fill-opacity="0"/>
	<path id="Vector" d="M5.52418 8.47586C5.14502 8.09668 4.91168 7.57751 4.91168 7C4.91168 5.845 5.84502 4.91168 7.00002 4.91168C7.57751 4.91168 8.09668 5.14502 8.47585 5.52417L5.52418 8.47586Z" stroke="#3A3A3A" stroke-opacity="1.000000" stroke-width="1.000000" stroke-linejoin="round"/>
	<path id="Vector" d="M10.395 3.36584C9.37416 2.59586 8.2075 2.17584 7 2.17584C4.94083 2.17584 3.02167 3.38919 1.68583 5.48917C1.16084 6.31168 1.16084 7.69418 1.68583 8.51666C2.14667 9.24002 2.68333 9.86417 3.26667 10.3658" stroke="#3A3A3A" stroke-opacity="1.000000" stroke-width="1.000000" stroke-linejoin="round" stroke-linecap="round"/>
	<path id="Vector" d="M4.91168 11.3925C5.57668 11.6725 6.28252 11.8242 7.00002 11.8242C9.05918 11.8242 10.9783 10.6108 12.3142 8.51083C12.8392 7.68832 12.8392 6.30582 12.3142 5.48334C12.1217 5.17999 11.9117 4.89417 11.6958 4.62582" stroke="#3A3A3A" stroke-opacity="1.000000" stroke-width="1.000000" stroke-linejoin="round" stroke-linecap="round"/>
	<path id="Vector" d="M9.0475 7.40833C8.89583 8.23083 8.225 8.90167 7.4025 9.05331" stroke="#3A3A3A" stroke-opacity="1.000000" stroke-width="1.000000" stroke-linejoin="round" stroke-linecap="round"/>
	<path id="Vector" d="M5.52416 8.47583L1.16666 12.8333" stroke="#3A3A3A" stroke-opacity="1.000000" stroke-width="1.000000" stroke-linejoin="round" stroke-linecap="round"/>
	<path id="Vector" d="M12.8333 1.16669L8.47583 5.5242" stroke="#3A3A3A" stroke-opacity="1.000000" stroke-width="1.000000" stroke-linejoin="round" stroke-linecap="round"/>
	<g opacity="0.000000"/>
</svg>
