<svg width="16.000000" height="16.000000" viewBox="0 0 16 16" fill="none" xmlns="http://www.w3.org/2000/svg" xmlns:xlink="http://www.w3.org/1999/xlink">
	<desc>
			Created with Pixso.
	</desc>
	<defs/>
	<g opacity="0.600000">
		<path id="Vector" d="M16 7.42856L12.5314 7.42856C12.4031 6.42316 11.9447 5.48877 11.228 4.77203C10.5112 4.05533 9.57684 3.59686 8.57144 3.46857L8.57144 0L7.42856 0L7.42856 3.46857C6.42316 3.59686 5.48877 4.05533 4.77203 4.77203C4.05533 5.48877 3.59686 6.42316 3.46857 7.42856L0 7.42856L0 8.57144L3.46857 8.57144C3.59686 9.57684 4.05533 10.5112 4.77203 11.228C5.48877 11.9447 6.42316 12.4031 7.42856 12.5314L7.42856 16L8.57144 16L8.57144 12.5314C9.57684 12.4031 10.5112 11.9447 11.228 11.228C11.9447 10.5112 12.4031 9.57684 12.5314 8.57144L16 8.57144L16 7.42856ZM8 11.4286C7.3219 11.4286 6.65903 11.2275 6.09518 10.8507C5.53137 10.474 5.09192 9.93854 4.83243 9.31207C4.57291 8.68558 4.505 7.99619 4.6373 7.33112C4.76959 6.66605 5.09613 6.05511 5.57562 5.57562C6.05511 5.09613 6.66605 4.76959 7.33112 4.6373C7.99619 4.505 8.68558 4.57291 9.31207 4.83243C9.93854 5.09192 10.474 5.53137 10.8507 6.09518C11.2275 6.65903 11.4286 7.3219 11.4286 8C11.4275 8.909 11.0659 9.78046 10.4232 10.4232C9.78046 11.0659 8.909 11.4275 8 11.4286Z" fill="#0560FA" fill-opacity="1.000000" fill-rule="nonzero"/>
		<path id="Vector" d="M13.3985 8.57144L14 8.57144L16 8.57144L16 7.42856L14 7.42856L12.5314 7.42856C12.494 7.13562 12.4286 6.84869 12.337 6.57144C12.114 5.89713 11.7358 5.27994 11.228 4.77203C10.7201 4.26416 10.1029 3.88596 9.42856 3.66302C9.15131 3.57135 8.86438 3.50595 8.57144 3.46857L8.57144 2L8.57144 0L7.42856 0L7.42856 2L7.42856 2.60135L7.42856 3.46857C7.13562 3.50595 6.84869 3.57135 6.57144 3.66302C5.89713 3.88596 5.27994 4.26416 4.77203 4.77203C4.26416 5.27994 3.88596 5.89713 3.66302 6.57144C3.57135 6.84869 3.50595 7.13562 3.46857 7.42856L2 7.42856L0 7.42856L0 8.57144L2 8.57144L2.60159 8.57144L3.46857 8.57144C3.50595 8.86438 3.57135 9.15131 3.66302 9.42856C3.88596 10.1029 4.26416 10.7201 4.77203 11.228C5.27994 11.7358 5.89713 12.114 6.57144 12.337C6.84869 12.4286 7.13562 12.494 7.42856 12.5314L7.42856 14L7.42856 16L8.57144 16L8.57144 14L8.57144 13.3987L8.57144 12.5314C8.86438 12.494 9.15131 12.4286 9.42856 12.337C10.1029 12.114 10.7201 11.7358 11.228 11.228C11.7358 10.7201 12.114 10.1029 12.337 9.42856C12.4286 9.15131 12.494 8.86438 12.5314 8.57144L13.3985 8.57144ZM11.1154 9.42856C11.3192 8.98459 11.428 8.49792 11.4286 8C11.4286 7.50482 11.3214 7.01773 11.1168 6.57144C11.0412 6.40659 10.9524 6.24728 10.8507 6.09518C10.4976 5.56665 10.0049 5.1474 9.42856 4.88324C9.39011 4.8656 9.35126 4.84866 9.31207 4.83243C8.68558 4.57291 7.99619 4.505 7.33112 4.6373C7.06781 4.6897 6.81296 4.77252 6.57144 4.88324C6.20288 5.05215 5.8653 5.28598 5.57562 5.57562C5.28598 5.8653 5.05215 6.20288 4.88324 6.57144C4.77252 6.81296 4.6897 7.06781 4.6373 7.33112C4.505 7.99619 4.57291 8.68558 4.83243 9.31207C4.84866 9.35126 4.8656 9.39011 4.88324 9.42856C5.1474 10.0049 5.56665 10.4976 6.09518 10.8507C6.24728 10.9524 6.40659 11.0412 6.57144 11.1168C7.01773 11.3214 7.50482 11.4286 8 11.4286C8.49792 11.428 8.98459 11.3192 9.42856 11.1154C9.7951 10.947 10.1325 10.7139 10.4232 10.4232C10.7139 10.1325 10.947 9.7951 11.1154 9.42856Z" fill="#0560FA" fill-opacity="1.000000" fill-rule="evenodd"/>
	</g>
</svg>
