<svg width="72" height="70" viewBox="0 0 72 70" fill="none" xmlns="http://www.w3.org/2000/svg">
<rect x="0.155151" y="0.801468" width="71.2105" height="68.6483" rx="34.3242" fill="#ED3A3A"/>
<path d="M39.3054 33.7608L40.0567 37.2688C40.2632 38.2287 40.7519 39.105 41.4599 39.7851C42.168 40.4653 43.0632 40.9183 44.0305 41.0861L47.1993 41.638C48.3825 41.8437 49.5996 41.5906 50.6027 40.9303C51.6057 40.2699 52.3193 39.252 52.598 38.0839C53.6221 33.7843 51.8785 28.9942 47.3492 27.4954C44.3697 26.5092 40.4104 25.6448 35.6691 25.6265C30.9168 25.6075 26.9185 26.4252 23.8947 27.3635C19.335 28.7826 17.4718 33.5435 18.4401 37.8786C18.6996 39.0407 19.3924 40.06 20.3774 40.7288C21.3624 41.3977 22.5654 41.6657 23.7412 41.4782L26.955 40.9655C27.926 40.8119 28.8289 40.3713 29.5474 39.7003C30.2659 39.0293 30.7672 38.1587 30.9868 37.2004L31.7889 33.7073C33.0216 33.4071 34.285 33.2515 35.5536 33.2438C36.8215 33.2617 38.0823 33.4358 39.3076 33.762L39.3054 33.7608Z" fill="white"/>
</svg>
